<svg width="780" height="680" xmlns="http://www.w3.org/2000/svg">
 <defs>
  <clipPath id="clip0">
   <rect id="svg_1" x="125" y="60" fill="white" height="525" width="807"/>
  </clipPath>
 </defs>
 <g>
  <title>Layer 1</title>
  <path id="svg_2" fill-opacity="0.5" fill="#27AE60" d="m111.006,178.391c-41.7743,31.166 -71.6653,83.504 -71.9202,143.495c-0.2654,61.972 35.7581,129.996 88.6772,153.379c54.012,23.927 112.313,0.191 166.454,23.491c59.225,25.478 99.673,101.357 160.134,120.108c49.745,15.427 97.325,-13.467 131.096,-50.828c33.772,-37.361 69.077,-80.692 102.479,-119.826c85.994,-100.72 -113.278,-209.312 -137.044,-317.564c-40.248,-183.7827 -318.134,-47.7023 -439.876,47.745z" opacity="0.8"/>
  <g id="svg_3" clip-path="url(#clip0)" stroke="null">
   <path id="svg_4" fill="#108F6E" d="m524.53348,333.65048l-0.179,-2.469c0,0 1.108,-0.076 2.953,-0.076c1.845,0 4.504,0 7.634,0.305c7.722,0.593 15.366,1.957 22.816,4.072c7.461,2.111 14.672,5.025 21.505,8.691c2.267,1.154 4.472,2.429 6.604,3.818l2.43,1.603l-1.387,2.049l-2.341,-1.451c-2.079,-1.389 -4.233,-2.664 -6.452,-3.817c-6.668,-3.567 -13.704,-6.4 -20.983,-8.45c-7.292,-2.073 -14.773,-3.412 -22.331,-3.995c-3.118,-0.28 -5.663,-0.28 -7.483,-0.28c-1.819,0 -2.786,0 -2.786,0z" stroke="null"/>
   <path id="svg_5" fill="#FCE300" d="m590.84248,362.91748c-1.785,-1.388 -3.002,-3.378 -3.423,-5.599c-0.247,-1.025 -0.282,-2.09 -0.102,-3.13c0.179,-1.039 0.569,-2.031 1.145,-2.914c0.621,-0.887 1.445,-1.612 2.403,-2.115c0.959,-0.502 2.024,-0.768 3.107,-0.774c2.55,0.028 5.015,0.926 6.986,2.545c1.945,1.666 3.243,3.963 3.664,6.49c0.186,1.053 0.114,2.135 -0.21,3.155c-0.323,1.019 -0.889,1.945 -1.647,2.698c-0.785,0.725 -1.708,1.285 -2.713,1.646c-1.006,0.361 -2.074,0.515 -3.141,0.454c-2.247,-0.089 -4.393,-0.958 -6.069,-2.456z" stroke="null"/>
   <path id="svg_6" fill="#108F6E" d="m591.71948,357.82748c0.776,0.377 1.58,0.692 2.405,0.941c1.502,0.575 3.101,0.852 4.708,0.815c-0.043,-1.676 -0.53,-3.309 -1.412,-4.734c-0.468,-0.765 -0.996,-1.493 -1.578,-2.176c2.031,-0.523 3.933,-1.458 5.586,-2.749c0.715,-0.542 1.364,-1.165 1.934,-1.857c-2.333,-1.258 -4.894,-2.037 -7.533,-2.291c-1.88,-0.118 -3.762,0.187 -5.509,0.891c-1.672,0.62 -3.179,1.617 -4.403,2.914c-0.652,1.62 -1.005,3.344 -1.044,5.09c-0.026,1.719 0.193,3.432 0.649,5.09c0.55,2.149 1.543,4.16 2.914,5.904c0.585,-0.669 1.097,-1.399 1.527,-2.176c1.017,-1.726 1.618,-3.664 1.756,-5.662z" stroke="null"/>
   <path id="svg_7" fill="#9F9D9D" d="m347.08748,564.89648c140.637,0 254.647,-9.566 254.647,-21.365c0,-11.8 -114.01,-21.365 -254.647,-21.365c-140.638,0 -254.6471,9.565 -254.6471,21.365c0,11.799 114.0091,21.365 254.6471,21.365z" stroke="null"/>
   <path id="svg_8" fill="#108F6E" d="m173.87848,328.20348l-0.903,2.545c0,0 -1.018,-0.356 -2.876,-0.941c-1.858,-0.586 -4.53,-1.362 -7.762,-2.176c-7.919,-2.032 -15.961,-3.549 -24.075,-4.543c-8.109,-0.991 -16.277,-1.416 -24.444,-1.272c-3.334,0.165 -6.121,0.178 -8.055,0.394l-3.041,0.305l-0.268,-2.659l3.105,-0.305c1.973,-0.217 4.797,-0.229 8.195,-0.408c8.295,-0.143 16.589,0.282 24.826,1.273c8.229,1.016 16.385,2.555 24.419,4.606c3.282,0.827 6.006,1.629 7.889,2.227c1.883,0.598 2.99,0.954 2.99,0.954z" stroke="null"/>
   <path id="svg_9" fill="#FFD200" d="m346.03148,165.60748c0,0 -20.627,-10.179 -24.177,-32.651c-3.551,-22.472 32.193,-30.934 47.081,6.197c0,0 -2.685,-40.2232 21.81,-44.6132c24.495,-4.39 20.538,44.5362 13.107,52.3242c0,0 10.281,-7.457 20.359,-1.273c10.078,6.185 6.833,30.425 -25.704,36.902c-32.537,6.477 -52.476,-16.886 -52.476,-16.886z" stroke="null"/>
   <path id="svg_10" fill="white" d="m368.51548,171.83048c-5.726,-12.636 -16.109,-26.162 -16.211,-26.302l0.572,-0.433c0.102,0.14 10.536,13.717 16.288,26.429l-0.649,0.306z" stroke="null"/>
   <path id="svg_11" fill="white" d="m394.08548,120.19548l-8.544,49.466l0.702,0.121l8.544,-49.466l-0.702,-0.121z" stroke="null"/>
   <path id="svg_12" fill="#BCE13E" d="m228.32748,209.90148c0,0 -8.5,-18.641 -26.035,-18.629c-17.534,0.013 -20.054,18.502 -9.81,32.245c-12.298,-7.582 -26.577,-11.325 -41.012,-10.752c-24.177,0.928 -41.992,18.807 -36.8,38.784c5.192,19.978 32.244,24.534 39.956,22.434c0,0 -26.633,18.922 -16.123,36.1c10.511,17.178 43.468,0 43.468,0l46.356,-100.182z" stroke="null"/>
   <path id="svg_13" fill="white" d="m192.95248,258.43448c-0.292,-0.127 -30.119,-12.419 -45.363,-13.934l0.14,-1.425c15.448,1.54 45.478,13.908 45.809,13.997l-0.586,1.362z" stroke="null"/>
   <path id="svg_14" fill="white" d="m148.07248,258.34548l-0.839,-1.145c5.98,-4.39 17.814,-8.793 18.298,-8.908l0.496,1.273c-0.127,0.102 -12.127,4.517 -17.955,8.78z" stroke="null"/>
   <path id="svg_15" fill="white" d="m179.21048,252.89948c-0.166,-0.471 -4.11,-11.351 -4.454,-15.779l1.425,-0.115c0.331,4.238 4.327,15.27 4.365,15.397l-1.336,0.497z" stroke="null"/>
   <path id="svg_16" fill="white" d="m153.76048,302.01648l-0.712,-1.273c14.837,-8.652 26.62,-10.408 26.721,-10.434l0.191,1.425c-0.089,0.051 -11.605,1.782 -26.2,10.282z" stroke="null"/>
   <path id="svg_17" fill="white" d="m217.63848,229.39648c-0.471,-0.522 -11.554,-12.61 -14.582,-22.446l1.374,-0.42c2.926,9.531 14.15,21.772 14.251,21.886l-1.043,0.98z" stroke="null"/>
   <path id="svg_18" fill="#FFD200" d="m143.13548,342.22648l-1.171,-8.716c-4.898,-0.69 -9.839,-1.039 -14.786,-1.043c-13.808,-0.147 -27.5175,2.349 -40.3879,7.354l-0.4708,6.185l-2.9649,-4.658c-1.9723,0.904 -3.8174,1.871 -5.6625,2.927l1.8705,11.452l-6.8204,-8.233c-5.0122,3.412 -9.1424,7.965 -12.0503,13.285c-2.5592,4.927 -3.324,10.591 -2.1632,16.02c0.9399,4.669 3.1403,8.99 6.3623,12.496c1.592,1.737 3.3764,3.286 5.319,4.619c2.0697,1.409 4.2682,2.619 6.5659,3.614c9.4799,4.148 21.8229,5.675 35.1453,4.695l3.143,-10.039l4.34,9.2c3.015,-0.433 6.069,-0.968 9.11,-1.655l-0.839,-5.993l4.988,5.014c1.17,-0.306 2.354,-0.624 3.524,-0.955c21.098,-6.108 34.421,-16.109 42.45,-24.66c8.029,-8.551 10.791,-15.588 10.791,-15.588c0,0 -12.127,-17.115 -41.928,-23.095l-4.365,7.774z" stroke="null"/>
   <path id="svg_19" fill="white" d="m179.72048,356.94348l-98.1054,18.519l0.2644,1.401l98.105,-18.52l-0.264,-1.4z" stroke="null"/>
   <path id="svg_20" fill="white" d="m120.39648,381.62248l-1.387,-0.357c1.502,-5.967 9.238,-13.997 9.556,-14.289l1.018,1.03c0,0 -7.787,8.004 -9.187,13.616z" stroke="null"/>
   <path id="svg_21" fill="white" d="m153.23848,363.33748c-8.016,-1.846 -16.402,-10.333 -16.758,-10.689l1.031,-1.005c0.076,0.089 8.436,8.551 16.058,10.294l-0.331,1.4z" stroke="null"/>
   <path id="svg_22" fill="#FFD200" d="m536.77448,426.71848l-1.883,8.36c16.172,8.665 34.27,13.107 52.616,12.916l2.545,-5.472l1.133,5.268c2.112,-0.161 4.174,-0.415 6.184,-0.763l2.151,-11.083l3.448,9.849c5.742,-1.417 11.064,-4.183 15.524,-8.068c4.023,-3.661 6.642,-8.612 7.406,-13.997c0.716,-4.592 0.162,-9.291 -1.603,-13.59c-0.874,-2.128 -1.984,-4.151 -3.309,-6.032c-1.413,-1.995 -3.015,-3.848 -4.784,-5.535c-7.253,-7.011 -18.044,-12.585 -30.54,-16.211l-6.286,8.105l-0.89,-9.925c-2.902,-0.623 -5.892,-1.17 -8.908,-1.578l-1.272,5.777l-2.863,-6.273c-1.171,-0.127 -2.354,-0.229 -3.55,-0.318c-21.365,-1.578 -36.902,3.067 -47.184,8.169c-10.281,5.103 -15.155,10.613 -15.155,10.613c0,0 5.281,19.761 30.54,35.323l6.68,-5.535z" stroke="null"/>
   <path id="svg_23" fill="white" d="m508.47248,399.43448l-0.239,1.405l96.029,16.328l0.239,-1.405l-96.029,-16.328z" stroke="null"/>
   <path id="svg_24" fill="white" d="m588.69148,424.74648c-0.115,-0.102 -10.905,-10.472 -16.924,-13.119l0.573,-1.273c6.26,2.749 16.885,12.98 17.343,13.412l-0.992,0.98z" stroke="null"/>
   <path id="svg_25" fill="white" d="m558.48248,409.01848l-0.623,-1.273c0.102,0 9.862,-4.721 13.03,-9.378l1.183,0.815c-3.397,4.949 -13.182,9.632 -13.59,9.836z" stroke="null"/>
   <path id="svg_26" fill="white" d="m545.08348,420.01248c0,-0.114 -4.822,-10.689 -11.198,-14.862l0.789,-1.196c6.719,4.402 11.453,15.015 11.72,15.473l-1.311,0.585z" stroke="null"/>
   <path id="svg_27" fill="#BCE13E" d="m467.61648,491.28148l-18.854,48.987l2.815,1.083l18.853,-48.987l-2.814,-1.083z" stroke="null"/>
   <path id="svg_28" fill="#BCE13E" d="m470.42948,491.36748l-2.815,1.084l18.853,48.986l2.815,-1.083l-18.853,-48.987z" stroke="null"/>
   <path id="svg_29" fill="#BCE13E" d="m477.49048,510.79048l-16.301,0l0,3.016l16.301,0l0,-3.016z" stroke="null"/>
   <path id="svg_30" fill="#BCE13E" d="m481.05248,521.55548l-23.617,0l0,3.016l23.617,0l0,-3.016z" stroke="null"/>
   <path id="svg_31" fill="#91B31E" d="m139.62348,540.91048c0.361,1.254 0.933,2.438 1.692,3.499c1.273,1.705 3.131,3.818 3.36,4.734c0.229,0.916 -0.878,1.743 -1.934,1.374c-3.617,-1.465 -7.118,-3.2 -10.473,-5.192c-1.781,-1.374 -2.29,-1.87 -2.239,-2.201c0.858,-1.746 1.809,-3.446 2.85,-5.09c0.636,-0.967 5.408,-0.942 6.744,2.876z" stroke="null"/>
   <path id="svg_32" fill="#91B31E" d="m159.46148,530.73048c0.922,0.927 1.993,1.693 3.168,2.265c1.896,0.904 4.568,1.858 5.205,2.545c0.636,0.687 0,1.96 -1.031,2.138c-3.877,0.438 -7.782,0.587 -11.681,0.445c-2.227,-0.356 -2.914,-0.56 -3.029,-0.865c-0.098,-1.95 -0.098,-3.903 0,-5.853c0.166,-1.133 4.377,-3.385 7.368,-0.675z" stroke="null"/>
   <path id="svg_33" fill="#0E1A34" d="m159.81748,463.74748c0,0 3.678,24.648 3.818,31.099c0.14,6.451 -3.818,36.304 -3.818,36.304l-7.775,0c0,0 0.751,-14.545 0.751,-16.822c0,-2.278 -0.751,-22.141 -0.751,-22.141l0.751,-27.639c0,0 4.556,-2.799 7.024,-0.801z" stroke="null"/>
   <path id="svg_34" fill="#0E1A34" d="m141.82548,464.61348c0,0 -2.431,6.362 -1.68,19.354c0.751,12.992 1.387,16.071 1.387,16.071c0,0 -8.716,33.899 -9.862,37.945c2.52,1.74 5.432,2.829 8.475,3.169l12.521,-30.87c2.877,-6.578 4.334,-13.689 4.276,-20.869c0,-7.088 0.789,-26.187 0.789,-26.187l-15.906,1.387z" stroke="null"/>
   <path id="svg_35" fill="white" d="m153.76048,508.51348l-0.687,-0.216c2.58,-8.952 3.828,-18.234 3.703,-27.549l0.713,0c0.121,9.387 -1.135,18.742 -3.729,27.765z" stroke="null"/>
   <path id="svg_36" fill="#FF9A5C" d="m165.90048,460.19748c0,0 -16.021,-2.761 -21.836,-5.981c-5.815,-3.219 -5.09,-6.069 -4.288,-8.131c0.801,-2.061 3.308,-6.426 3.308,-6.426l5.675,4.059l-0.14,1.273l-0.967,2.214c0,0 1.858,1.171 4.658,2.723c2.799,1.552 14.175,6.782 14.175,6.782c0,0 2.774,2.278 -0.585,3.487z" stroke="null"/>
   <path id="svg_37" fill="#FF9A5C" d="m165.46748,460.07048c0.872,0.896 1.898,1.629 3.028,2.163c0.115,1.082 0.751,1.54 1.095,1.502c0.343,-0.038 0.356,-1.667 0.356,-1.667c0.318,0.751 1.54,1.501 1.705,1.043c0.097,-0.397 0.097,-0.811 0,-1.209c0,0 0.509,0.662 0.878,0.662c0.369,0 0.84,-0.331 0.674,-1.171c-0.224,-0.978 -0.621,-1.908 -1.17,-2.748c-0.496,-0.662 -0.789,-1.273 -1.871,-1.578c-0.896,-0.143 -1.803,-0.211 -2.71,-0.204c-1.042,-0.069 -2.088,-0.069 -3.13,0l1.145,3.207z" stroke="null"/>
   <path id="svg_38" fill="#753519" d="m153.65848,409.27348c0,0 -2.137,-4.645 -8.156,-2.889c-6.019,1.756 -4.148,7.406 -8.029,9.786c-3.882,2.379 -9.671,3.639 -11.173,10.294c-1.501,6.655 3.143,7.151 0,11.16c-3.143,4.008 -4.263,6.909 -0.878,11.045c3.385,4.135 9.353,2.888 13.081,0.878c3.729,-2.011 20.042,-9.658 20.042,-9.658c1.052,-1.123 1.637,-2.604 1.637,-4.142c0,-1.539 -0.585,-3.02 -1.637,-4.142c-3.818,-4.276 -2.762,-10.791 -2.762,-10.791c0,0 1.387,-0.254 1.884,-4.021c0.496,-3.766 -0.7,-8.665 -4.009,-7.52z" stroke="null"/>
   <path id="svg_39" fill="#FF9A5C" d="m514.71484,84.68524l2.138,-1.5142c5.335,6.0653 11.768,11.0691 18.96,14.7481c11.795,5.942 15.842,8.22 16.911,8.411c1.069,0.191 6.146,1.069 7.902,3.308c1.756,2.24 1.947,3.512 1.565,3.614c-0.382,0.102 -2.341,-2.71 -2.341,-2.71c0,0 1.946,2.545 1.756,3.461c-0.191,0.916 -1.273,-0.662 -1.68,-1.056c-0.407,-0.395 -1.374,-1.527 -1.374,-1.527c0.873,1.072 1.596,2.258 2.15,3.525c0.076,0.814 -1.272,-0.242 -2.341,-1.413c-1.069,-1.171 -2.24,-1.718 -2.545,-1.374c-0.306,0.343 -0.395,1.807 -0.827,1.527c-0.433,-0.28 -0.509,-1.362 -0.7,-2.151c-0.7,0 -3.818,-1.158 -9.595,-2.303c-5.777,-1.145 -28.617,-11.198 -33.835,-17.6745c-5.217,-6.4769 3.856,-6.8714 3.856,-6.8714z" stroke="null"/>
   <path id="svg_40" fill="#BCE13E" d="m659.72584,319.59614c1.924,-2.168 3.183,-4.846 3.626,-7.711c0.23,-2.813 -0.41,-5.629 -1.832,-8.067l1.679,1.781c0.98,1.082 2.367,2.469 3.652,3.945l4.849,6.133c-1.939,2.234 -3.283,4.922 -3.907,7.813c-0.604,2.764 -0.383,5.644 0.636,8.284c2.152,-1.877 3.694,-4.354 4.428,-7.113c0.335,-1.339 0.46,-2.721 0.369,-4.098c-0.06,-1.463 -0.402,-2.902 -1.005,-4.237l0.84,1.069c0.484,0.662 1.069,1.59 1.667,2.545l2.418,3.639c0.013,1.49 0.232,2.972 0.649,4.403c0.306,1.379 0.807,2.707 1.488,3.944c1.507,2.564 3.714,4.643 6.363,5.994c0.312,-2.979 -0.259,-5.984 -1.642,-8.64c-0.658,-1.283 -1.517,-2.451 -2.545,-3.461c-1.171,-1.002 -2.477,-1.833 -3.881,-2.469c0,0 -0.61,-0.903 -1.514,-2.278l-1.54,-2.328c-0.28,-0.433 -0.572,-0.866 -0.878,-1.273l-1.005,-1.272l-5.421,-6.846c2.33,1.778 5.096,2.894 8.008,3.232c2.911,0.339 5.859,-0.114 8.535,-1.311c-2.302,-2.236 -5.233,-3.714 -8.399,-4.237c-2.982,-0.422 -6.021,0.169 -8.627,1.68l-5.383,-5.714c-1.224,-1.317 -2.524,-2.562 -3.893,-3.728l-1.82,-1.654c1.306,0.693 2.696,1.215 4.135,1.552c1.381,0.296 2.788,0.458 4.2,0.484c2.916,-0.015 5.775,-0.819 8.271,-2.329c-1.332,-0.994 -2.791,-1.803 -4.339,-2.405c-1.444,-0.521 -2.97,-0.78 -4.505,-0.763c-3.037,0.035 -5.981,1.058 -8.386,2.913l-1.819,-1.654l-4.263,-3.295c-1.552,-1.197 -3.092,-2.418 -4.352,-3.182l-2.049,-1.348c1.399,0.482 2.852,0.786 4.327,0.903c1.389,0.185 2.797,0.185 4.186,0c2.907,-0.449 5.642,-1.661 7.928,-3.512c-2.807,-1.578 -6.036,-2.245 -9.238,-1.909c-3.012,0.473 -5.786,1.916 -7.902,4.11l-2.049,-1.348c-1.273,-0.802 -2.99,-1.706 -4.683,-2.685l-2.545,-1.413l-2.265,-1.081l-2.214,-1.057c2.842,0.545 5.772,0.41 8.551,-0.394c2.816,-0.856 5.352,-2.451 7.342,-4.619c-1.595,-0.609 -3.263,-1.003 -4.962,-1.171c-0.767,-0.064 -1.537,-0.064 -2.303,0c-0.754,0.097 -1.499,0.254 -2.227,0.471c-2.902,0.886 -5.433,2.701 -7.202,5.166l-1.031,-0.483l-2.8,-1.145c-2.303,-0.993 -5.459,-2.087 -8.627,-3.118c-3.168,-1.031 -6.426,-1.794 -8.907,-2.252c-1.362,-0.292 -2.738,-0.513 -4.123,-0.662l0,0.407c0,0 1.158,0.115 2.888,0.433c1.731,0.318 4.034,0.814 6.299,1.4c2.265,0.585 4.53,1.272 6.184,1.883l2.774,0.941c-0.446,2.933 -0.148,5.93 0.866,8.717c0.996,2.595 2.66,4.882 4.822,6.629c0.858,-2.734 0.885,-5.661 0.077,-8.411c-0.888,-2.702 -2.641,-5.036 -4.988,-6.642l2.265,0.916c1.361,0.573 3.193,1.273 4.937,2.138c1.743,0.865 3.537,1.667 4.835,2.341l2.138,1.273c-0.886,2.808 -1.027,5.799 -0.407,8.678c0.554,2.744 1.878,5.273 3.817,7.291c1.245,-2.566 1.688,-5.448 1.273,-8.271c-0.221,-1.359 -0.651,-2.677 -1.273,-3.906c-0.716,-1.26 -1.616,-2.405 -2.672,-3.398l2.125,1.196c1.272,0.675 2.901,1.82 4.543,2.876c2.2,1.391 4.324,2.899 6.362,4.518c-1.291,2.651 -1.861,5.596 -1.654,8.538c0.176,2.798 1.113,5.495 2.71,7.8c1.604,-2.376 2.464,-5.175 2.469,-8.042c-0.006,-1.383 -0.243,-2.754 -0.7,-4.059c-0.541,-1.342 -1.274,-2.598 -2.176,-3.728l1.947,1.488c1.42,1.092 2.784,2.255 4.085,3.487l3.906,3.525c0.451,0.396 0.876,0.821 1.272,1.272l0.459,0.484c-1.658,2.466 -2.649,5.32 -2.876,8.283c-0.089,1.358 0.022,2.722 0.331,4.047c0.263,1.414 0.699,2.79 1.298,4.097z" stroke="null"/>
   <path id="svg_41" fill="#91B31E" d="m212.79584,140.89014c-2.497,2.358 -4.263,5.383 -5.09,8.716c-0.743,3.323 -0.423,6.795 0.916,9.925l-1.718,-2.354c-1.056,-1.387 -2.38,-3.321 -3.665,-5.255l-3.575,-5.319c-0.497,-0.725 -0.878,-1.349 -1.146,-1.781l-0.407,-0.687c2.566,-2.45 4.418,-5.551 5.357,-8.971c0.422,-1.61 0.597,-3.275 0.522,-4.938c-0.023,-1.722 -0.275,-3.434 -0.751,-5.089c-2.674,2.129 -4.68,4.982 -5.777,8.22c-0.939,3.256 -0.873,6.72 0.191,9.938l-2.736,-4.428c-0.674,-1.12 -1.374,-2.215 -1.845,-3.067l-0.776,-1.425c0.269,-3.485 -0.441,-6.975 -2.049,-10.078c-1.584,-3.139 -4.035,-5.758 -7.062,-7.546c-0.609,3.519 -0.166,7.14 1.273,10.409c1.634,3.177 4.2,5.779 7.354,7.456l0.42,0.789c0.268,0.497 0.662,1.209 1.184,2.036l3.728,6.096c1.273,2.239 2.8,4.377 3.818,5.993l1.806,2.697c-2.556,-2.294 -5.672,-3.874 -9.034,-4.58c-3.398,-0.695 -6.921,-0.435 -10.18,0.75c1.283,1.429 2.756,2.675 4.377,3.703c1.525,0.918 3.188,1.584 4.925,1.973c3.512,0.754 7.171,0.398 10.472,-1.018l1.629,2.417l3.818,5.192c2.71,3.817 5.624,7.457 5.624,7.457c-1.38,-1.082 -2.899,-1.972 -4.517,-2.647c-1.514,-0.677 -3.117,-1.135 -4.759,-1.362c-3.45,-0.417 -6.948,0.116 -10.117,1.54c2.63,2.574 5.973,4.299 9.595,4.95c3.562,0.505 7.194,-0.09 10.409,-1.705l1.794,2.303c1.056,1.4 2.545,3.194 4.034,4.988l4.084,4.95l1.922,2.214c-2.784,-2.05 -6.092,-3.269 -9.54,-3.515c-3.449,-0.245 -6.896,0.493 -9.942,2.128c2.782,2.385 6.201,3.903 9.836,4.365c3.58,0.323 7.173,-0.459 10.295,-2.24l1.908,2.214c1.133,1.273 2.672,3.08 4.263,4.797l4.314,4.76l1.998,2.125c-2.869,-1.922 -6.225,-2.988 -9.677,-3.074c-3.452,-0.086 -6.857,0.813 -9.818,2.59c6.363,4.772 13.616,5.166 20.169,1.196l3.41,3.614c2.087,2.112 4.823,4.988 7.635,7.762c2.812,2.774 5.662,5.548 7.838,7.635c2.176,2.087 3.64,3.372 3.64,3.372l0.331,-0.369c0,0 -4.161,-3.754 -8.157,-7.635c-2.023,-1.947 -3.983,-3.945 -5.484,-5.421l-2.456,-2.545c2.008,-2.935 3.138,-6.383 3.257,-9.938c0.071,-3.506 -0.875,-6.957 -2.723,-9.938c-2.134,2.687 -3.399,5.96 -3.626,9.384c-0.227,3.423 0.594,6.835 2.354,9.78c0,0 -3.271,-3.321 -6.439,-6.744c-1.616,-1.68 -3.181,-3.411 -4.352,-4.708l-1.959,-2.164c2.147,-2.803 3.423,-6.175 3.669,-9.697c0.247,-3.523 -0.547,-7.04 -2.282,-10.115c-2.243,2.595 -3.64,5.813 -4.006,9.223c-0.367,3.411 0.316,6.852 1.957,9.864l-1.947,-2.176l-4.199,-4.848c-1.553,-1.743 -3.029,-3.537 -4.136,-4.899l-1.858,-2.252c2.245,-2.745 3.674,-6.065 4.123,-9.582c0.415,-3.463 -0.195,-6.972 -1.756,-10.091c-2.302,2.532 -3.826,5.673 -4.39,9.048c-0.531,3.369 -0.016,6.82 1.476,9.887l-1.794,-2.253l-3.945,-5.089c-2.926,-3.652 -5.624,-7.457 -5.624,-7.457c2.4,-2.61 4.018,-5.842 4.67,-9.327c0.588,-3.412 0.213,-6.919 -1.081,-10.129z" stroke="null"/>
   <path id="svg_42" fill="#FF9A5C" d="m450.86184,96.54414c-0.674,-0.386 -1.284,-0.875 -1.807,-1.45c-0.276,-0.563 -0.656,-1.068 -1.119,-1.489c-0.518,-0.396 -1.126,-0.658 -1.769,-0.764c0.283,1.063 0.777,2.058 1.45,2.927c0.148,0.113 0.332,0.166 0.517,0.147c0.185,-0.019 0.355,-0.108 0.476,-0.249c0.347,0.823 0.805,1.593 1.362,2.291c0,0 2.074,-0.738 0.89,-1.413z" stroke="null"/>
   <path id="svg_43" fill="#1A6652" d="m413.00584,519.71714c100.454,0 181.887,-81.433 181.887,-181.887c0,-100.453 -81.433,-181.887 -181.887,-181.887c-100.453,0 -181.887,81.434 -181.887,181.887c0,100.454 81.434,181.887 181.887,181.887z" stroke="null"/>
   <path id="svg_44" fill="#19614F" d="m449.58984,465.17914c-35.874,-0.004 -70.738,-11.871 -99.165,-33.752c-28.427,-21.882 -48.82,-52.549 -58.004,-87.226c-9.185,-34.678 -6.644,-71.419 7.226,-104.502c13.87,-33.083 38.291,-60.651 69.459,-78.411c-31.001,7.695 -59.429,23.415 -82.428,45.579c-23,22.164 -39.76,49.992 -48.596,80.686c-8.836,30.695 -9.437,63.175 -1.742,94.175c7.695,31 23.414,59.429 45.578,82.428c22.164,23 49.992,39.76 80.687,48.597c30.694,8.836 63.174,9.437 94.174,1.743c31,-7.695 59.429,-23.414 82.429,-45.578c23,-22.163 39.761,-49.991 48.597,-80.685c-14.571,23.541 -34.918,42.967 -59.108,56.434c-24.191,13.467 -51.421,20.528 -79.107,20.512z" stroke="null"/>
   <path id="svg_45" fill="#FF9A5C" d="m474.65684,96.88814c0,0 -4.339,3.919 -5.802,3.919c-1.463,0 -15.919,-4.339 -18.642,-4.911c-2.723,-0.573 -2.545,0.292 -3.664,1.005c-1.12,0.713 2.303,2.889 2.303,2.889c0,0 12.928,6.591 19.647,8.207c6.718,1.616 12.025,-3.817 12.025,-3.817c0,0 1.705,-7.075 -5.867,-7.292z" stroke="null"/>
   <path id="svg_46" fill="#108F6E" d="m422.68984,100.85814c0,0 10.179,1.107 17.165,-0.674c0,0 4.352,7.291 5.994,9.988l-0.713,3.487c-2.067,2.349 -4.58,4.263 -7.394,5.63c-2.814,1.368 -5.872,2.162 -8.995,2.336c0,0 -7.623,-10.549 -6.057,-20.767z" stroke="null"/>
   <path id="svg_47" fill="#108F6E" d="m438.63384,113.17514c-1.294,-0.003 -2.569,-0.304 -3.729,-0.878l0.726,-1.272c0.821,0.401 1.716,0.628 2.629,0.668c0.913,0.039 1.824,-0.11 2.677,-0.439c2.367,-1.018 4.148,-3.665 5.281,-7.851c1.272,-4.759 0.636,-8.564 -1.871,-11.0073c-2.914,-2.8376 -7.571,-3.1048 -10.879,-2.0995c-6.795,2.0486 -6.096,11.5798 -6.096,11.6688l-1.501,0.127c0,-0.115 -0.802,-10.8415 7.164,-13.2337c4.492,-1.3616 9.454,-0.369 12.368,2.4559c2.036,1.9848 4.085,5.7518 2.265,12.4828c-1.272,4.67 -3.334,7.635 -6.158,8.907c-0.917,0.351 -1.896,0.511 -2.876,0.471z" stroke="null"/>
   <path id="svg_48" fill="#FF9A5C" d="m446.52284,94.76314c0,0 -1.273,-0.496 -1.832,0.394c-0.56,0.891 1.641,1.642 3.486,1.464c1.845,-0.178 0.191,-1.527 -1.654,-1.858z" stroke="null"/>
   <path id="svg_49" fill="#FF9A5C" d="m446.48484,96.07414c-0.364,-0.108 -0.747,-0.133 -1.121,-0.073c-0.374,0.059 -0.73,0.201 -1.043,0.416c-0.878,0.751 1.947,1.82 4.098,1.629c2.15,-0.191 0.229,-1.629 -1.934,-1.972z" stroke="null"/>
   <path id="svg_50" fill="#91B31E" d="m487.58584,203.33014c-0.403,1.406 -1.044,2.732 -1.896,3.919c-1.387,1.896 -3.5,4.263 -3.818,5.294c-0.318,1.031 0.967,1.947 2.151,1.54c1.183,-0.408 9.721,-4.263 11.719,-5.803c1.998,-1.54 2.545,-2.112 2.545,-2.468c-0.965,-1.959 -2.031,-3.866 -3.194,-5.714c-0.636,-1.069 -5.98,-1.031 -7.507,3.232z" stroke="null"/>
   <path id="svg_51" fill="#FF9A5C" d="m446.22984,97.29514c-0.326,-0.107 -0.676,-0.125 -1.011,-0.051c-0.336,0.074 -0.646,0.237 -0.897,0.471c-0.789,0.814 1.718,1.909 3.639,1.705c1.921,-0.204 1.018,-1.985 -1.731,-2.125z" stroke="null"/>
   <path id="svg_52" fill="#108F6E" d="m423.78384,111.47014c0,0 -27.994,-6.362 -29.012,-6.362c-1.018,0 -4.518,-0.649 -6.197,1.667c0.123,0.476 0.348,0.92 0.66,1.3c0.312,0.38 0.703,0.688 1.147,0.901c1.552,0.777 3.613,-0.763 3.613,-0.763l33.784,11.948c0.591,-1.684 0.504,-3.531 -0.241,-5.152c-0.746,-1.622 -2.092,-2.89 -3.754,-3.539z" stroke="null"/>
   <path id="svg_53" fill="#108F6E" d="m391.36084,109.58714c-0.392,0.004 -0.779,-0.083 -1.132,-0.254c-0.494,-0.233 -0.93,-0.573 -1.276,-0.996c-0.345,-0.423 -0.592,-0.917 -0.722,-1.447l0,-0.357l0.344,0c0.349,-0.053 0.702,-0.078 1.056,-0.076c1.662,-0.025 3.282,0.518 4.593,1.54l0.357,0.292l-0.369,0.28c-0.839,0.594 -1.825,0.946 -2.851,1.018zm-2.316,-2.468c0.291,0.692 0.825,1.253 1.502,1.577c0.254,0.12 0.533,0.181 0.814,0.179c0.714,-0.047 1.405,-0.27 2.011,-0.649c-1.13,-0.75 -2.461,-1.141 -3.818,-1.12l-0.509,0.013z" stroke="null"/>
   <path id="svg_54" fill="#FFD200" d="m570.66484,482.53614l-50.415,0l8.513,-9.798l50.415,0l-8.513,9.798z" stroke="null"/>
   <path id="svg_55" fill="#9AE5E5" d="m388.57484,106.81314c0,0 -19.851,19.838 -17.204,43.531l24.024,0c0,0 -5.93,-29.266 -1.4,-42.093c-0.749,-0.612 -1.62,-1.056 -2.555,-1.304c-0.935,-0.248 -1.912,-0.294 -2.865,-0.134z" opacity="0.79" stroke="null"/>
   <path id="svg_56" fill="#0E1A34" d="m485.68884,123.05014c0,0 -19.418,15.346 -21.632,20.665c-2.214,5.319 8.755,16.657 8.755,16.657c0,0 10.371,36.901 13.997,43.073c3.031,-0.803 5.969,-1.92 8.767,-3.334c0,0 -3.461,-33.326 -5.089,-37.767c0,0 25.182,-23.553 29.495,-30.539c4.314,-6.986 -31.302,-11.173 -34.293,-8.755z" stroke="null"/>
   <path id="svg_57" fill="#91B31E" d="m498.55384,183.77214c0.25,1.44 0.25,2.912 0,4.352c-0.382,2.316 -1.272,5.37 -0.98,6.363c0.099,0.248 0.262,0.467 0.471,0.634c0.21,0.167 0.459,0.277 0.724,0.318c0.264,0.041 0.535,0.012 0.786,-0.083c0.25,-0.096 0.471,-0.255 0.641,-0.462c0.878,-0.904 6.769,-8.17 7.876,-10.447c1.107,-2.278 1.349,-3.041 1.133,-3.334c-1.74,-1.323 -3.549,-2.55 -5.421,-3.678c-1.056,-0.585 -5.815,1.82 -5.23,6.337z" stroke="null"/>
   <path id="svg_58" fill="white" d="m472.45584,160.38414c-0.242,-8.207 13.475,-21.441 14.061,-21.988l0.496,0.509c-0.14,0.14 -14.074,13.565 -13.845,21.454l-0.712,0.025z" stroke="null"/>
   <path id="svg_59" fill="#0E1A34" d="m474.30084,162.20414l23.923,21.785c1.914,-2.011 3.663,-4.172 5.23,-6.464c0,0 -8.717,-16.975 -12.318,-20.436c-3.601,-3.461 -16.835,5.115 -16.835,5.115z" stroke="null"/>
   <path id="svg_60" fill="#91B31E" d="m547.11184,469.37814c-0.959,1.099 -2.099,2.024 -3.372,2.736c-2.061,1.133 -4.975,2.38 -5.65,3.207c-0.674,0.827 0.064,2.189 1.273,2.316c1.209,0.127 10.599,0.242 13.068,-0.306c2.469,-0.547 3.219,-0.814 3.334,-1.158c-0.048,-2.187 -0.209,-4.37 -0.484,-6.54c-0.152,-1.247 -5,-3.487 -8.169,-0.255z" stroke="null"/>
   <path id="svg_61" fill="#108F6E" d="m383.70084,154.63314l-1.45,0c0,0 0,-0.573 -0.14,-1.617c-0.14,-1.043 -0.357,-2.544 -0.726,-4.3c-0.967,-4.329 -2.379,-8.546 -4.212,-12.585c-1.812,-4.057 -4.002,-7.934 -6.54,-11.58c-0.98,-1.539 -1.96,-2.697 -2.545,-3.55l-1.018,-1.272l1.132,-0.904l1.031,1.273c0.649,0.865 1.642,2.048 2.647,3.613c2.582,3.723 4.814,7.676 6.668,11.809c1.872,4.135 3.317,8.449 4.313,12.877c0.369,1.82 0.624,3.36 0.738,4.441c0.115,1.082 0.102,1.795 0.102,1.795z" stroke="null"/>
   <path id="svg_62" fill="#FCE300" d="m366.98084,111.54714c2.137,2.418 2.227,5.675 0.254,7.253c-1.099,0.657 -2.39,0.918 -3.658,0.739c-1.268,-0.179 -2.436,-0.787 -3.31,-1.724c-0.873,-0.936 -1.4,-2.143 -1.491,-3.421c-0.091,-1.277 0.258,-2.547 0.99,-3.598c1.718,-1.87 4.962,-1.527 7.215,0.751z" stroke="null"/>
   <path id="svg_63" fill="#108F6E" d="m366.10284,114.56314c-0.403,-0.312 -0.828,-0.592 -1.273,-0.84c-0.871,-0.447 -1.833,-0.686 -2.812,-0.7c-0.012,0.951 0.197,1.892 0.611,2.749c0.18,0.476 0.393,0.939 0.636,1.386c-1.711,0.206 -3.31,0.96 -4.556,2.151c1.946,1.395 4.34,2.02 6.719,1.756c1.021,-0.094 2.015,-0.384 2.927,-0.853c0.689,-0.785 1.202,-1.709 1.501,-2.71c0.324,-1.26 0.378,-2.575 0.158,-3.858c-0.219,-1.282 -0.706,-2.504 -1.43,-3.586c-1.264,1.216 -2.129,2.787 -2.481,4.505z" stroke="null"/>
   <path id="svg_64" fill="#91B31E" d="m574.17684,449.89714c0.052,1.461 -0.146,2.92 -0.585,4.314c-0.738,2.239 -2.011,5.09 -1.934,6.197c0.06,0.263 0.188,0.505 0.372,0.703c0.183,0.198 0.415,0.345 0.673,0.424c0.258,0.08 0.532,0.091 0.795,0.032c0.263,-0.06 0.506,-0.187 0.705,-0.37c0.992,-0.751 7.915,-7.063 9.34,-9.149c1.425,-2.087 1.794,-2.8 1.628,-3.131c-1.522,-1.565 -3.128,-3.048 -4.809,-4.441c-1.018,-0.789 -6.083,0.904 -6.185,5.421z" stroke="null"/>
   <path id="svg_65" fill="#91B31E" d="m344.13984,128.75114c0.503,4.804 1.99,9.454 4.367,13.659c2.378,4.205 5.595,7.876 9.452,10.785c13.259,10.18 25.729,6.044 25.729,6.044c0,0 0.866,-13.119 -12.393,-23.337c-3.795,-2.989 -8.164,-5.166 -12.835,-6.397c-4.671,-1.23 -9.545,-1.487 -14.32,-0.754z" stroke="null"/>
   <path id="svg_66" fill="white" d="m349.91184,132.78114l-0.435,0.565l34.006,26.207l0.435,-0.564l-34.006,-26.208z" stroke="null"/>
   <path id="svg_67" fill="white" d="m361.89384,142.12214l-8.038,0.25l0.022,0.712l8.038,-0.25l-0.022,-0.712z" stroke="null"/>
   <path id="svg_68" fill="white" d="m357.99484,132.63314l-0.694,0.159l1.802,7.838l0.695,-0.16l-1.803,-7.837z" stroke="null"/>
   <path id="svg_69" fill="white" d="m370.63884,148.86014l-8.038,0.251l0.022,0.712l8.038,-0.251l-0.022,-0.712z" stroke="null"/>
   <path id="svg_70" fill="white" d="m366.73884,139.39614l-0.695,0.16l1.801,7.837l0.695,-0.159l-1.801,-7.838z" stroke="null"/>
   <path id="svg_71" fill="white" d="m379.39384,155.60714l-8.038,0.25l0.022,0.712l8.038,-0.25l-0.022,-0.712z" stroke="null"/>
   <path id="svg_72" fill="white" d="m375.49584,146.13314l-0.695,0.16l1.801,7.838l0.695,-0.16l-1.801,-7.838z" stroke="null"/>
   <path id="svg_73" fill="#BCE13E" d="m405.49784,128.44514c-3.827,0.398 -7.531,1.581 -10.881,3.475c-3.35,1.894 -6.273,4.458 -8.587,7.532c-8.131,10.562 -4.81,20.5 -4.81,20.5c0,0 10.459,0.687 18.591,-9.875c2.384,-3.021 4.119,-6.501 5.098,-10.223c0.978,-3.722 1.179,-7.606 0.589,-11.409z" stroke="null"/>
   <path id="svg_74" fill="#91B31E" d="m318.67784,153.13114l7.494,-12.024c-2.846,-11.723 -7.277,-23.004 -13.17,-33.53c-4.899,-8.653 -10.98,-16.5803 -18.069,-23.5534l-10.116,7.1003c0,0 1.273,-2.8757 2.749,-5.7388l2.786,-5.6752c-7.094,-6.3067 -14.83,-11.8511 -23.082,-16.5421c-3.652,-2.0105 -6.846,-3.6902 -9.824,-5.0009c-2.458,-1.133 -5.014,-2.0443 -7.634,-2.723c-2.364,3.5262 -4.187,7.3864 -5.408,11.4522c-0.928,2.8202 -1.651,5.7034 -2.164,8.6274c-0.627,3.3647 -1.052,6.7641 -1.272,10.1797l6.362,2.545l6.273,2.4558l-6.362,0.2418l-6.362,0.1909c-0.045,21.2133 6.716,41.8813 19.29,58.9663c1.985,2.736 4.009,5.319 6.096,7.635l8.907,-0.56l8.907,-0.611l-11.198,8.182c7.473,7.301 15.881,13.578 25.004,18.667c3.398,1.884 6.223,3.207 8.208,4.085c1.985,0.878 3.143,1.272 3.143,1.272l10.485,-7.265l10.485,-7.266c0,0 0,-0.662 0,-1.973c0,-1.31 0,-3.181 -0.14,-5.586c-0.393,-6.541 -1.243,-13.046 -2.545,-19.469l-8.843,5.917z" stroke="null"/>
   <path id="svg_75" fill="white" d="m322.90284,179.44614c-3.958,-5.79 -13.692,-20.118 -25.615,-38.645c-11.923,-18.527 -26.111,-41.241 -38.747,-64.196c9.238,24.533 21.848,48.532 32.97,67.721c11.121,19.189 20.805,33.682 24.864,39.625l3.257,-2.253l3.271,-2.252z" stroke="null"/>
   <path id="svg_76" fill="#BCE13E" d="m333.46384,165.25814l7.826,-4.708c1.813,-7.588 2.571,-15.39 2.252,-23.185c-0.295,-6.447 -1.495,-12.82 -3.563,-18.934l-7.889,1.183l3.244,-2.545l3.258,-2.544c-2.277,-5.721 -5.174,-11.174 -8.64,-16.263c-2.232,-3.458 -4.915,-6.6032 -7.978,-9.3523c-3.347,1.7942 -8.908,6.9093 -13.667,15.0153l2.927,3.257l2.939,3.194l-3.817,-1.667l-3.754,-1.718c-5.132,10.141 -7.44,21.477 -6.68,32.818c0.28,4.33 0.949,8.627 1.997,12.839l10.575,4.542l-8.831,1.413c2.165,6.375 5.159,12.437 8.907,18.031c1.387,2.087 2.621,3.677 3.499,4.759c0.878,1.081 1.413,1.667 1.413,1.667l8.156,-1.069l8.157,-1.082c0.809,-1.409 1.539,-2.862 2.188,-4.352c1.713,-3.868 3.15,-7.852 4.301,-11.923l-6.82,0.624z" stroke="null"/>
   <path id="svg_77" fill="white" d="m328.13184,181.59614c-0.56,-4.479 -1.921,-15.575 -3.334,-29.712c-1.412,-14.137 -2.952,-31.354 -3.702,-48.227c-1.406,16.148 -1.619,32.378 -0.637,48.558c0.751,14.302 2.036,25.449 2.622,30.056l2.545,-0.331l2.506,-0.344z" stroke="null"/>
   <path id="svg_78" fill="#BCE13E" d="m555.16684,236.05914c0,0 12.037,-33.479 10.536,-65.927c-1.502,-32.448 8.029,-56.816 23.591,-54.92c15.562,1.896 29.114,60.608 -30.119,124.359l-4.008,-3.512z" stroke="null"/>
   <path id="svg_79" fill="white" d="m560.37084,234.83614l-1.209,-0.763c0.216,-0.344 21.861,-35.235 22.701,-73.715l1.425,0c-0.84,38.913 -22.701,74.122 -22.917,74.478z" stroke="null"/>
   <path id="svg_80" fill="#91B31E" d="m557.87684,240.04114c0,0 21.632,-11.261 43.748,-13.234c22.115,-1.972 37.805,-10.688 35.082,-21.072c-2.723,-10.383 -43.799,-14.15 -81.578,31.901l2.748,2.405z" stroke="null"/>
   <path id="svg_81" fill="white" d="m558.99684,237.31814l-0.916,-1.095c0.216,-0.191 22.141,-18.298 48.506,-22.472l0.217,1.413c-25.959,4.11 -47.591,21.975 -47.807,22.154z" stroke="null"/>
   <path id="svg_82" fill="#BCE13E" d="m655.61584,234.45514c-7.6,-0.907 -15.254,-1.265 -22.905,-1.069c-9.684,0.284 -19.222,2.445 -28.083,6.362c-9.913,4.416 -15.27,12.356 -18.349,19.304c-1.813,4.094 -3.055,8.419 -3.69,12.852c3.581,2.772 7.603,4.923 11.897,6.362c4.518,1.646 9.327,2.342 14.127,2.045c4.799,-0.298 9.486,-1.583 13.766,-3.776c9.348,-4.814 17.357,-11.87 23.311,-20.537c4.477,-6.583 7.831,-13.863 9.926,-21.543z" stroke="null"/>
   <path id="svg_83" fill="white" d="m582.65184,272.14514l-0.153,-0.42c0,0 3.957,-1.578 9.849,-4.123c5.891,-2.545 13.679,-6.057 21.365,-9.772c7.685,-3.716 15.269,-7.635 20.881,-10.791c2.812,-1.54 5.09,-2.876 6.731,-3.817l2.545,-1.476l0.229,0.381l-2.545,1.476c-1.603,0.955 -3.919,2.304 -6.731,3.818c-5.612,3.117 -13.195,7.075 -20.907,10.79c-7.711,3.716 -15.498,7.241 -21.39,9.786c-5.891,2.545 -9.874,4.148 -9.874,4.148z" stroke="null"/>
   <path id="svg_84" fill="white" d="m625.01284,252.30814c-0.151,-1.118 -0.116,-2.253 0.101,-3.36c0.557,-3.074 1.665,-6.023 3.271,-8.703l0.369,0.216c-1.559,2.641 -2.64,5.535 -3.194,8.551c-0.126,0.783 -0.185,1.574 -0.178,2.367c0.003,0.281 0.024,0.561 0.063,0.84l-0.432,0.089z" stroke="null"/>
   <path id="svg_85" fill="white" d="m613.99284,257.98314l0.331,-0.306c0.239,0.238 0.494,0.459 0.763,0.662c0.75,0.569 1.551,1.067 2.392,1.489c3.363,1.605 7.017,2.51 10.74,2.659l0,0.446c-3.78,-0.144 -7.491,-1.057 -10.905,-2.685c-1.227,-0.562 -2.35,-1.328 -3.321,-2.265z" stroke="null"/>
   <path id="svg_86" fill="white" d="m593.42984,267.42514l0.331,-0.293c0.266,0.286 0.551,0.553 0.852,0.802c0.837,0.682 1.731,1.291 2.673,1.819c3.774,1.992 7.911,3.203 12.164,3.563l0,0.433c-4.31,-0.35 -8.505,-1.571 -12.33,-3.589c-1.381,-0.688 -2.63,-1.614 -3.69,-2.735z" stroke="null"/>
   <path id="svg_87" fill="white" d="m602.24784,263.35314c-0.135,-1.669 -0.002,-3.349 0.395,-4.975c1.075,-4.531 2.935,-8.837 5.497,-12.725l0.369,0.242c-2.533,3.842 -4.364,8.103 -5.408,12.584c-0.258,1.159 -0.407,2.339 -0.446,3.525c-0.027,0.424 -0.027,0.849 0,1.273l-0.407,0.076z" stroke="null"/>
   <path id="svg_88" fill="white" d="m632.74884,248.36314l0.306,-0.318c0.572,0.492 1.221,0.887 1.921,1.171c2.018,0.835 4.179,1.267 6.362,1.272l0,0.458c-2.254,0.006 -4.488,-0.426 -6.578,-1.272c-0.74,-0.319 -1.42,-0.763 -2.011,-1.311z" stroke="null"/>
   <path id="svg_89" fill="#91B31E" d="m637.02484,316.84714c-2.38,-10.383 -7.139,-26.213 -21.734,-38.034c-14.595,-11.821 -32.715,-3.576 -32.715,-3.576c0,0 -3.258,19.584 12.114,30.667c15.371,11.083 31.811,11.478 42.335,10.943z" stroke="null"/>
   <path id="svg_90" fill="white" d="m664.35831,304.08098l0.26476,-0.33076l52.35882,39.08632l-0.24973,0.33076l-52.37385,-39.08632z" stroke="null"/>
   <path id="svg_91" fill="white" d="m700.3136,330.59722c0.90874,-0.56331 1.90072,-0.98551 2.94242,-1.24967c2.93201,-0.74732 5.98426,-0.9381 8.98911,-0.55992l0,0.41656c-2.95167,-0.36463 -5.94842,-0.17385 -8.82725,0.55992c-0.73416,0.19191 -1.44866,0.45155 -2.13311,0.77554c-0.24626,0.11515 -0.48212,0.25061 -0.70641,0.40301l-0.26476,-0.34544z" stroke="null"/>
   <path id="svg_92" fill="white" d="m690.76606,323.60156l0.39772,0.15804c-0.10174,0.30141 -0.18036,0.60847 -0.23586,0.92004c-0.16186,0.87149 -0.24511,1.75654 -0.24973,2.64271c0.06012,3.47921 0.79428,6.91439 2.16201,10.12718l-0.39656,0.15804c-1.39779,-3.2602 -2.14698,-6.7507 -2.2071,-10.28522c-0.03931,-1.25983 0.13989,-2.51853 0.52952,-3.72079z" stroke="null"/>
   <path id="svg_93" fill="white" d="m673.43529,310.67363l0.41275,0.14337c-0.12371,0.34657 -0.21736,0.70216 -0.27979,1.0634c-0.19655,0.99906 -0.29482,2.01392 -0.29482,3.03104c0.04971,3.98156 0.8833,7.91796 2.45683,11.59133l-0.39656,0.15804c-1.60012,-3.72304 -2.45452,-7.7125 -2.51579,-11.74938c-0.03353,-1.43706 0.17574,-2.86848 0.61739,-4.23781l-0.00001,0.00001z" stroke="null"/>
   <path id="svg_94" fill="white" d="m680.95261,316.13176c1.3527,-0.86133 2.8453,-1.49238 4.4142,-1.86717c4.38414,-1.10066 8.94171,-1.37836 13.43222,-0.81844l0,0.41656c-4.42808,-0.54412 -8.92205,-0.2619 -13.24145,0.83311c-1.10297,0.29577 -2.17704,0.69087 -3.20718,1.17742c-0.37344,0.1682 -0.73185,0.36576 -1.07407,0.58927l-0.32372,-0.33076l0,0.00001z" stroke="null"/>
   <path id="svg_95" fill="white" d="m706.90484,335.63992l0.39772,0.15804c-0.20926,0.6841 -0.30407,1.39755 -0.27979,2.111c0.04393,2.04779 0.47749,4.06961 1.27986,5.96161l-0.39772,0.15804c-0.8255,-1.95183 -1.27408,-4.03574 -1.3238,-6.14788c-0.02081,-0.75974 0.08902,-1.51721 0.32372,-2.24083l0.00001,0.00002z" stroke="null"/>
   <path id="svg_96" fill="#FFD200" d="m237.64436,467.37788c0,0 -0.58848,-0.81844 -3.98642,0.66152c-3.3991,1.47883 -11.24015,11.59133 -13.56517,16.99302c2.4418,2.16632 5.06974,4.12267 7.85608,5.84647c1.43248,-1.17855 2.94704,-2.25776 4.53213,-3.23198c0.07053,5.25042 -0.30869,10.49745 -1.13303,15.68578c-0.65554,3.18118 -1.47988,6.32624 -2.47186,9.42388c7.6815,2.9983 16.08906,3.75127 24.20065,2.16858c0,0 0.17689,-14.03423 0.61854,-19.43479c0.4405,-5.40169 3.03028,-11.49199 1.60359,-16.46245c-1.42785,-4.97046 -7.53235,-6.95277 -12.46105,-11.89387l-5.19345,0.24384l-0.00001,0z" stroke="null"/>
   <path id="svg_97" fill="#FF9A5C" d="m247.42775,454.59332c-0.21504,-2.53659 -1.13072,-4.96933 -2.64875,-7.03856c-2.39787,-2.873 -7.69422,-1.88184 -9.85623,2.58513c-1.08332,2.05117 -1.6718,4.31571 -1.72152,6.62201c-0.2902,-0.23932 -0.65785,-0.3714 -1.03707,-0.3714c-0.38038,0 -0.74803,0.13208 -1.03707,0.3714c-1.61862,1.0634 0.82318,4.85531 3.28001,4.19492c0.52721,0.93471 1.23131,1.76331 2.07414,2.44177c0,3.04572 0.64745,3.86415 0.64745,3.86415c2.2811,2.70141 4.95875,5.37234 6.76814,4.19492c1.80938,-1.17855 -0.36766,-2.873 -0.95614,-3.76368c-0.09249,-0.1016 -0.16186,-0.22126 -0.20464,-0.35108c-0.04162,-0.12982 -0.0555,-0.26642 -0.04047,-0.40188c0.01503,-0.13547 0.05896,-0.26642 0.12949,-0.38382c0.06937,-0.1174 0.16417,-0.22013 0.27748,-0.29915c5.39925,-0.63217 4.32518,-11.66471 4.32518,-11.66471l0,-0.00002z" stroke="null"/>
   <path id="svg_98" fill="#753519" d="m243.60203,449.82494c0,0 -1.47063,5.14205 -4.546,6.27657c0.45321,-0.42107 0.84053,-0.90423 1.14806,-1.43593c0,0 -4.01648,3.66321 -6.25249,3.31778c0,0 -1.47063,-0.6175 -1.86835,-5.48748c-0.39772,-4.86886 4.81076,-7.77121 4.81076,-7.77121l5.9727,0l4.19338,4.69727l0.4405,3.31891c-0.86827,-0.06773 -1.69839,-0.37817 -2.38977,-0.89633c-0.69254,-0.51703 -1.21628,-1.21806 -1.50878,-2.01957l-0.00001,-0.00001z" stroke="null"/>
   <path id="svg_99" fill="#FF9A5C" d="m247.92837,508.04463c0,0 -18.5378,-3.11796 -25.24582,-6.75183c-6.70917,-3.63386 -5.88483,-6.8523 -4.9576,-9.17892c0.92608,-2.32662 3.82456,-7.25418 3.82456,-7.25418l6.51725,4.58212l-0.16186,1.43706l-1.13303,2.49934c0,0 2.14814,1.32079 5.38537,3.07394c3.23608,1.75202 16.50644,7.64138 16.50644,7.64138c0,0 3.13318,2.58626 -0.73532,3.95108l0.00001,0.00001z" stroke="null"/>
   <path id="svg_100" fill="#108F6E" d="m279.98394,541.12644l-3.75057,-19.90892c-0.14568,-0.75296 -0.47287,-1.46077 -0.9573,-2.06359c-0.48443,-0.60169 -1.10991,-1.0826 -1.82326,-1.39868l-22.36236,-9.85399l1.2209,-2.62916l22.36236,9.85399c1.13766,0.51703 2.13311,1.2937 2.90079,2.2634c0.76769,0.96971 1.2868,2.10423 1.51225,3.30987l3.75173,19.89537l-2.85455,0.5317l0.00001,0.00001z" stroke="null"/>
   <path id="svg_101" fill="#753519" d="m290.54773,529.30369c0,0 4.546,-3.03104 6.82594,-3.34713c2.2811,-0.31496 2.94242,2.08391 4.546,1.6809c1.10528,-0.33528 2.11345,-0.92117 2.94242,-1.70912l3.23724,1.69558c0,0 0.3376,-0.89069 2.60366,0c2.26607,0.88956 0.97117,-0.07225 2.27994,0.87601c0.97117,0.59266 2.10883,0.87375 3.25111,0.80376c1.06251,-0.26642 2.17589,-0.26642 3.23724,0c1.63249,0.45945 4.06042,-0.77554 7.79711,0c3.7367,0.77554 7.14967,-0.77554 9.10704,0c1.95622,0.77554 2.94126,3.54807 4.54485,2.80188c1.48913,-0.81279 2.90195,-1.74976 4.22228,-2.80188l2.60482,4.43875c0,0 0.97117,-2.03988 2.26491,0c1.0995,1.43593 2.55164,2.57723 4.22228,3.31891c0.66826,0.53622 1.22321,1.19435 1.63365,1.93829c0.82434,1.86265 1.41282,3.81674 1.75042,5.81824l0,1.91006l-48.85798,-1.91006l-20.47899,-11.07543l2.26607,-4.43875l-0.00001,-0.00001z" stroke="null"/>
   <path id="svg_102" fill="#108F6E" d="m287.0469,534.21657l-3.75173,-19.89537c-0.13874,-0.75635 -0.46477,-1.46867 -0.9492,-2.07375c-0.48443,-0.60621 -1.11338,-1.08711 -1.83135,-1.40207l-22.36236,-9.85399l1.2209,-2.62916l22.36236,9.85399c1.13997,0.51477 2.13658,1.28918 2.90542,2.26002c0.76769,0.96971 1.28565,2.10649 1.50763,3.31326l3.75173,19.91004l-2.85339,0.51703l-0.00001,0z" stroke="null"/>
   <path id="svg_103" fill="#108F6E" d="m283.19227,529.30369c0,0 -4.13441,12.54072 -5.22236,14.6664c-1.0891,2.12568 2.60366,9.76819 2.60366,9.76819l38.95667,18.67392l38.07336,-25.71248l-74.41134,-17.39603l0.00001,0z" stroke="null"/>
   <path id="svg_104" fill="#108F6E" d="m275.90965,590.22479c-1.03707,0.03838 -2.06143,-0.2269 -2.94242,-0.76086c-1.97125,-1.26434 -2.66263,-3.9364 -2.26607,-8.61899c0.79428,-9.29406 7.35662,-35.0788 7.69422,-36.17042l1.60359,0.38721c0,0.27319 -6.86988,26.76234 -7.65028,35.91191c-0.3376,4.0222 0.14799,6.30592 1.47179,7.18306c2.07414,1.32079 6.91381,0 14.79995,-4.19492c14.78492,-7.80056 25.83314,-14.91024 25.9372,-14.98249l0.91105,1.35014c-0.11677,0.07225 -11.21009,7.18306 -26.069,15.05473c-6.23746,3.2602 -10.54761,4.84063 -13.49002,4.84063l-0.00001,0z" stroke="null"/>
   <path id="svg_105" fill="#753519" d="m357.63251,555.0602c0,0 -2.32387,2.54224 -2.45683,4.12267c-0.1318,1.5793 2.45683,0 2.45683,0c0,0 1.30992,1.7238 2.60482,0.70329c1.29489,-1.01938 0,-2.2555 0,-2.2555l0.57345,-2.57046l-3.17827,0z" stroke="null"/>
   <path id="svg_106" fill="#108F6E" d="m469.54492,591.21594l-2.22098,1.66623l-1.94234,-2.55691c-1.2209,-1.638 -2.94242,-3.99285 -4.92754,-6.86584c-3.98758,-5.746 -9.04807,-13.5172 -13.65304,-21.54692c-4.60497,-8.03085 -8.82725,-16.37665 -11.6078,-22.72547c-1.33883,-3.21731 -2.45683,-5.88936 -3.25111,-7.75653l-1.0891,-3.00282l2.61869,-0.93358l1.0891,2.95879l3.19215,7.65719c2.81061,6.26302 6.88491,14.50836 11.476,22.4805c4.58994,7.97215 9.59147,15.71513 13.53396,21.38888c1.95737,2.873 3.67773,5.15672 4.86973,6.78005l1.91228,2.45644l0,-0.00001z" stroke="null"/>
   <path id="svg_107" fill="#FCE300" d="m437.06272,514.75243c0.72144,2.42935 0.58733,5.02464 -0.38269,7.36932c-0.41853,1.08937 -1.0706,2.07827 -1.91344,2.90122c-0.84168,0.82295 -1.85563,1.45964 -2.97132,1.86717c-1.15269,0.38269 -2.38052,0.49896 -3.58755,0.34205c-1.20703,-0.15691 -2.36087,-0.58363 -3.37135,-1.24628c-2.34122,-1.54882 -4.03383,-3.86867 -4.76683,-6.53621c-0.21273,-0.70555 -0.36997,-1.42577 -0.47056,-2.15503c-0.05896,-0.70668 -0.05896,-1.41787 0,-2.12568c0.11793,-1.31176 0.46709,-2.59529 1.03013,-3.79191c0.48212,-1.08485 1.22206,-2.04101 2.15854,-2.79059c0.93649,-0.74958 2.04293,-1.26999 3.22567,-1.51947c1.18506,-0.19981 2.39902,-0.16143 3.56674,0.11289c1.16887,0.27432 2.26838,0.77893 3.2303,1.48222c1.0047,0.71007 1.87528,1.58495 2.57476,2.58513c0.35032,0.52041 0.65554,1.06792 0.91221,1.638c0.32026,0.59492 0.57692,1.22032 0.76538,1.86717l0.00001,0z" stroke="null"/>
   <path id="svg_108" fill="#108F6E" d="m432.98727,518.8751c-0.46824,-0.82747 -0.99892,-1.61994 -1.58971,-2.36952c-0.54108,-0.72135 -1.1365,-1.4032 -1.77932,-2.03988c-0.63473,-0.65814 -1.36889,-1.21467 -2.1782,-1.65268c-0.52143,0.7778 -0.91336,1.63123 -1.16194,2.52869c-0.22083,0.86585 -0.35494,1.75089 -0.39656,2.64271c-0.07746,0.97987 -0.07746,1.96425 0,2.94525c-2.1967,-0.78231 -4.53907,-1.10066 -6.87103,-0.93358c-0.99776,0.06096 -1.98512,0.23481 -2.94242,0.51703c3.22221,6.06208 7.62138,8.35935 11.00429,9.20714c1.91806,0.51251 3.9263,0.60621 5.88483,0.27319c1.71227,-1.01599 3.21064,-2.34242 4.4142,-3.90705c2.74587,-3.59887 4.09048,-8.03311 3.79566,-12.51137c-0.97117,0.254 -1.91344,0.60621 -2.81061,1.04873c-2.10073,0.99567 -3.93787,2.44967 -5.36919,4.25136l0,-0.00002z" stroke="null"/>
   <path id="svg_109" fill="#753519" d="m364.78334,560.21692c0,0 -1.94234,3.72079 -1.61862,4.68259c0.32372,0.96293 1.61862,0 1.61862,0c0,0 1.95622,0.83311 2.94242,0.41656c1.00007,-0.69087 1.87875,-1.53415 2.60366,-2.49934l-3.58986,0l-1.95622,-2.59981z" stroke="null"/>
   <path id="svg_110" fill="#753519" d="m374.86039,585.32545c0,0 -8.16477,-0.84666 -8.14974,0c0.01503,0.84779 0,3.28955 0,3.28955c-0.21042,-0.2698 -0.48096,-0.48993 -0.79312,-0.6412c-0.31101,-0.15127 -0.65438,-0.23029 -1.00123,-0.23029c-0.348,0 -0.69138,0.07902 -1.00239,0.23029c-0.31216,0.15127 -0.5827,0.3714 -0.79312,0.6412c-1.2394,1.49125 -2.03715,3.28504 -2.31,5.18607c-0.20233,0.59492 -0.57692,1.11985 -1.07869,1.5127c-0.50062,0.39172 -1.10644,0.63556 -1.7458,0.69991c-0.63935,0.06886 -1.24518,0.31496 -1.7458,0.71007c-0.50062,0.39398 -0.87521,0.92004 -1.07869,1.51608c2.60019,0.8286 5.26051,1.46303 7.95898,1.89652c1.84869,0.18739 3.71242,0.18739 5.56111,0c2.05796,-0.19304 4.1321,-0.14563 6.1785,0.14337c2.94242,0.4888 6.16462,1.13452 9.09201,1.43593c2.92739,0.30254 8.12084,-2.22615 8.12084,-2.22615c4.22459,-0.17836 8.45728,-0.07338 12.66684,0.31609c2.53314,0.29351 5.10212,-0.03161 7.47339,-0.94826l1.29489,-2.873c-1.6614,-0.42446 -3.14012,-1.35466 -4.22228,-2.65738c-1.61862,-2.09746 -3.57483,-7.61316 -4.86973,-8.02972c-1.73192,-0.93471 -3.36326,-2.0365 -4.86973,-3.28955c0,0 -3.25111,-4.89821 -3.57483,-7.98682c-0.32372,-3.08861 -4.546,-5.08447 -4.546,-5.08447c-0.73416,0.28222 -1.40126,0.70781 -1.95968,1.2508c-0.55958,0.54412 -0.99892,1.19323 -1.29143,1.90893c-0.29598,0.71797 -0.84631,1.30837 -1.55156,1.66171c-0.70525,0.35334 -1.51803,0.44704 -2.28803,0.26303c0,0 -1.67758,0.27319 -2.66263,3.03104c-0.57461,1.61317 -1.00817,3.27149 -1.29489,4.95578c0,0 -3.89856,-1.27789 -5.88483,0c-1.98628,1.27902 0.36766,3.31778 0.36766,3.31778l-0.00002,-0.00001z" stroke="null"/>
   <path id="svg_111" fill="#108F6E" d="m320.71184,570.20411l-2.7898,1.7396l7.29765,11.16349l2.79096,-1.73847l-7.29881,-11.16462z" stroke="null"/>
   <path id="svg_112" fill="#91B31E" d="m642.80641,537.28599l-21.797,55.29928l3.25342,1.22371l21.79816,-55.30041l-3.25458,-1.22258z" stroke="null"/>
   <path id="svg_113" fill="#91B31E" d="m646.05983,537.36614l-3.25342,1.22258l21.797,55.30041l3.25342,-1.22371l-21.797,-55.29928z" stroke="null"/>
   <path id="svg_114" fill="#91B31E" d="m654.19223,559.29688l-18.83031,0l0,3.4047l18.83031,0l0,-3.4047z" stroke="null"/>
   <path id="svg_115" fill="#91B31E" d="m658.34168,571.44927l-27.30493,0l0,3.4047l27.30493,0l0,-3.4047z" stroke="null"/>
   <path id="svg_116" fill="#FF9A5C" d="m622.79798,362.7748c-2.67419,2.59981 -4.77261,5.70987 -6.16462,9.13602c-0.41622,0.99567 -0.60929,2.06811 -0.56652,3.14393c0.04393,1.07582 0.32372,2.1302 0.81971,3.09087c0.49715,0.96181 1.19893,1.80734 2.05796,2.48128c0.86018,0.67394 1.85794,1.15936 2.92623,1.42465c0.48559,2.24308 0.79544,4.52003 0.92724,6.8094c1.70533,0.46058 3.46847,0.68297 5.23739,0.66039c1.17697,-0.15127 2.32965,-0.45042 3.428,-0.89069l0,-7.18193c1.83829,-1.61881 3.33667,-3.56952 4.41305,-5.746c1.03013,-2.7872 1.94234,-9.5808 -1.36773,-12.92793c-3.31007,-3.34713 -9.90132,-2.01166 -11.7107,0l-0.00001,0.00001z" stroke="null"/>
   <path id="svg_117" fill="#91B31E" d="m573.23359,341.12628c0,0 -0.11793,0.50348 -2.75049,1.2937c-2.63372,0.78909 -4.5171,0 -5.26745,2.14036c-0.75035,2.14036 0.75035,6.11853 -0.88215,6.98099c-0.78965,0.35108 -1.50647,0.83763 -2.11923,1.43593c0,0 4.13441,5.14317 5.50215,7.3411c1.2394,-1.06566 2.11576,-2.47337 2.51579,-4.03687c0.61854,-2.57159 4.89979,-1.33546 5.88483,-2.2126c0.73416,-0.67959 1.41282,-1.41449 2.03021,-2.19793c0,0 -1.41167,-8.9204 -4.91366,-10.74467l0,-0.00001z" stroke="null"/>
   <path id="svg_118" fill="#753519" d="m629.02041,367.38627c0,0 -4.58994,-3.13151 -5.64898,-6.04741c-1.05904,-2.9159 0.2058,-5.6173 2.82449,-5.31476c1.3527,0.13095 2.69153,0.37592 4.00145,0.73151c0,0 2.4418,-3.02991 6.66408,0.83424c1.25327,1.20339 2.23022,2.65287 2.86727,4.25249c0.63704,1.59962 0.91799,3.31213 0.8255,5.0269c0,0 5.34028,1.43593 3.20718,6.34882c-1.34114,2.96218 -3.81878,5.29332 -6.89994,6.49331c0,0 -0.69138,3.17441 -2.50076,3.346c-1.00239,0.07338 -1.9909,0.27093 -2.94242,0.58927l0.33875,-5.94694c0.58848,-0.05532 1.15037,-0.27093 1.62093,-0.62088c0.47056,-0.34995 0.83128,-0.82182 1.0417,-1.36143c0.97117,-1.96764 -2.03021,-1.66623 -2.03021,-1.66623c0,0 -1.70649,-3.01637 -0.95614,-4.16556c0.04393,0 -2.61869,-1.04873 -2.4129,-2.49934l0,0.00001z" stroke="null"/>
   <path id="svg_119" fill="#FF9A5C" d="m606.42335,378.87713c-5.53683,-4.39586 -10.6216,-9.30761 -15.18264,-14.6664c-6.98781,-8.36048 -11.25402,-14.36499 -11.25402,-14.36499c-0.06012,-2.20357 -0.55958,-4.37441 -1.47179,-6.39171c-0.53761,-1.32305 -1.36658,-2.51401 -2.42677,-3.49049c-0.85324,-1.1063 -0.83937,0.90423 0.2347,2.873l1.07407,1.96764c0,0 -2.79443,-4.30893 -3.82456,-4.22314c-1.03013,0.08579 0.2058,1.58043 0.73532,2.35597c0.37922,0.64685 0.62895,1.35917 0.73532,2.09746c0,0 -2.00015,-3.01749 -2.69153,-2.48579c-0.69138,0.5317 0.73532,2.3413 1.86835,3.77836c1.13303,1.43593 1.3238,3.69144 2.00015,4.89821c0,0 9.71055,24.59264 23.53933,35.16459c13.82878,10.57195 6.66408,-7.51269 6.66408,-7.51269l-0.00001,-0.00002z" stroke="null"/>
   <path id="svg_120" fill="#FF9A5C" d="m579.678,350.20585c0.09943,-0.59718 0.23701,-1.18758 0.41159,-1.76782c0.11793,-0.17159 0.50062,-1.50818 0.77925,-2.3413c0.27979,-0.83311 -0.11677,-1.62333 -0.60236,-1.22032c-0.77925,0.74845 -1.29374,1.71928 -1.47179,2.77253c0.15492,0.89181 0.45321,1.75428 0.8833,2.55691l0.00001,0z" stroke="null"/>
   <path id="svg_121" fill="#FF9A5C" d="m644.26201,403.71361c0,0 6.19353,7.3411 8.56249,8.4903c2.36896,1.1492 8.62145,-3.92173 11.76967,-9.75352c1.8591,-3.31665 3.49506,-6.74731 4.89863,-10.27167c0,0 4.19338,-2.97347 5.37034,-5.746c0,0 0.42662,-1.26322 0,-1.5364c-0.42662,-0.27319 -1.66255,1.7667 -2.31,2.54224c0,0 1.88338,-3.18908 1.58856,-3.89238c-0.29366,-0.70442 -2.94242,2.97347 -2.94242,2.97347c0,0 2.1042,-3.74901 1.38276,-3.82126c-0.72029,-0.07225 -2.76552,3.33245 -2.76552,3.33245c0,0 -0.07399,-2.3413 -0.79428,-2.19793c-0.72144,0.1445 -0.50062,2.75785 -0.50062,2.75785c0,0 -0.73532,3.26133 -1.16194,4.31006c-0.42662,1.04873 -9.57759,11.2617 -10.73953,11.49199c0,0 -3.69276,-5.10028 -7.10573,-6.09143c-3.41297,-0.99116 -5.25242,7.41222 -5.25242,7.41222l0.00001,0.00001z" stroke="null"/>
   <path id="svg_122" fill="#0E1A34" d="m612.57294,426.45375c0,0 8.57752,88.78749 10.07705,96.24261c0,0 8.13587,0.96293 10.90139,0c0,0 -0.61739,-54.05413 0,-59.61273c0.61854,-5.55973 5.51718,-33.9296 3.75173,-37.7644c-1.76545,-3.83593 -24.73017,1.13452 -24.73017,1.13452z" stroke="null"/>
   <path id="svg_123" fill="#0E1A34" d="m639.46628,424.94557c0,0 3.04531,35.52357 4.56103,40.95348c1.51456,5.42991 18.03603,28.45566 18.03603,28.45566l-7.20863,7.18306c0,0 -14.93291,-14.76687 -19.24306,-20.11098c-4.31015,-5.34411 -11.76967,-27.79527 -11.76967,-27.79527c0,0 4.23731,-34.24568 15.62429,-28.68595l0.00001,0z" stroke="null"/>
   <path id="svg_124" fill="#108F6E" d="m512.12151,224.47128c-8.37172,-2.54224 -14.43229,-3.33245 -19.33208,-6.03273c-4.89863,-2.70141 -9.82732,-4.69727 -13.57789,-4.5539c-3.75173,0.14337 -11.53497,-1.83894 -16.18387,0c-4.6489,1.83894 -9.5036,11.13301 -16.5943,12.82746c-7.0907,1.69558 -24.86313,-1.95296 -29.82072,-5.05625c-4.9576,-3.10329 -6.37042,-9.30874 -4.94372,-12.4109c1.31917,-3.39454 1.90072,-7.01937 1.70649,-10.6442c-0.29366,-2.02521 7.22366,-6.00451 9.81345,-8.61899c2.58863,-2.61448 5.06049,-11.33395 -1.0891,-15.67223c-28.9513,6.36349 -56.1857,18.66376 -79.89961,36.08463c0.27863,1.72041 0.92608,3.36519 1.89841,4.82596c1.73539,2.873 -1.04516,4.511 -0.95614,5.35879c0.08787,0.84666 1.64752,0.74619 0.29366,2.35597c-1.3527,1.60865 0,1.30611 -1.23593,2.44177c-1.03823,1.02051 -2.13889,1.98005 -3.29504,2.873c-0.86827,0.55992 -0.57345,2.25437 -2.31,4.22314c-1.73539,1.96764 -4.89863,3.66321 -4.89863,6.76537c0,3.10329 -4.91366,7.32643 -5.48711,9.02087c-0.57461,1.69558 -5.48827,8.17422 -5.76806,12.39735c-0.29713,3.75239 -0.29713,7.52285 0,11.27638c0.385,2.81317 0.30985,5.66923 -0.21967,8.45982c-0.84053,3.78062 -1.33305,7.62671 -1.47179,11.49199c-0.29366,5.63085 2.01518,8.17422 7.50345,9.86866c5.48711,1.69558 15.85899,6.47864 18.46265,10.14185c2.60366,3.66208 4.04654,8.17309 6.07675,8.73301c2.03021,0.56105 3.75057,6.49331 10.38575,10.98964c6.63518,4.49633 19.05229,5.08447 24.5394,10.85982c5.48711,5.77422 15.5792,19.85134 18.18402,27.60787c2.60366,7.75766 6.92884,10.61598 11.53381,14.36499c4.60497,3.74901 10.40078,8.0015 14.71208,8.28823c4.31015,0.28786 6.09063,-1.43593 5.88483,-3.00169c-0.20695,-1.56576 -5.6351,-6.01918 -6.50338,-7.18193c-0.86827,-1.16387 -2.60366,-8.74881 -5.19345,-14.0918c-2.58863,-5.34411 -2.94242,-5.57441 -2.03021,-8.14486c0.91221,-2.57159 2.60482,-8.20244 5.19345,-9.61015c2.58979,-1.40771 4.62,-0.38833 6.35539,-2.873c1.73655,-2.48466 2.3389,-3.89238 2.1782,-5.44458c-0.16186,-1.55108 -2.75165,-2.51401 -5.35531,-2.74318c-2.60482,-0.23029 -3.45806,-2.47112 -6.93,-3.03104c-3.47194,-0.55992 -8.37057,-1.98231 -9.51863,-3.94995c-0.59195,-0.85456 -1.4267,-1.52286 -2.40018,-1.92248c-0.97464,-0.40075 -2.0464,-0.5159 -3.08694,-0.33302c-1.73539,0.28674 -6.92884,1.11985 -10.38575,-2.2555c-3.45806,-3.37535 -3.75173,-9.86866 -4.32633,-13.24401c-0.57345,-3.37535 -1.16194,-4.511 -0.29366,-7.05324c0.86827,-2.54224 0.86827,-4.52455 4.91366,-6.34882c4.04539,-1.82427 10.66554,-3.24666 14.71208,0c4.04539,3.24553 12.12229,0.71797 13.85768,-1.24967c1.73655,-1.96877 6.63518,-7.90103 10.68172,-8.17422c4.04539,-0.27206 10.68057,0 13.2403,-2.25437c2.55973,-2.2555 12.41596,-7.01034 14.1525,-10.8316c1.73539,-3.82126 8.45959,-14.89556 8.45959,-18.5012c0,-3.60564 12.12229,-10.65888 15.5792,-9.53903c3.45691,1.12098 8.0769,-4.22314 9.81345,-4.22314c1.73539,0 6.92884,0.84779 9.81229,-2.54224c2.88345,-3.39002 5.19345,-5.64553 7.50345,-8.87751c2.30884,-3.23198 4.03036,-8.31645 -4.34021,-10.84514z" stroke="null"/>
   <path id="svg_125" fill="#108F6E" d="m494.12826,490.14625c-5.78309,-3.50291 -11.79973,-6.62652 -18.00713,-9.35164c-8.26767,-3.39002 -14.3583,-15.42726 -16.53534,-17.91306c-2.17704,-2.48466 -3.91359,-24.14673 0,-27.98153c3.91359,-3.83593 7.85608,-10.18475 11.10719,-15.28503c3.25111,-5.09915 4.56103,-8.50385 3.25111,-10.62953c-1.30877,-2.12568 -1.30877,-14.19227 0,-16.23216c1.30992,-2.03988 7.84105,-5.86001 10.88636,-5.44346c3.04531,0.41656 12.62291,-2.18438 16.5365,0c3.91359,2.18325 18.71354,9.79641 25.24582,10.22765c6.53112,0.4301 13.04837,5.94694 18.27188,2.97347c5.22236,-2.97347 12.88767,0.4301 17.32962,6.80827c4.44311,6.37817 9.65159,12.85681 17.05098,17.05059c7.40055,4.19492 6.75311,8.01617 10.99042,8.86283c4.23615,0.84779 13.71085,3.37648 18.84534,6.79472c5.13449,3.41938 3.44303,7.65719 -0.79428,12.75634c-4.23731,5.09915 -9.5036,13.17176 -12.96166,18.27204c-3.45691,5.09915 -2.19207,12.75521 0,14.86734c2.19207,2.111 0.45668,11.06076 -2.58863,13.603c-3.04531,2.54224 -9.57759,6.79472 -12.18126,11.49199c-2.60366,4.69727 -2.35393,8.14486 -8.35669,10.22765c-6.0016,2.08278 -19.49279,8.04439 -27.76045,9.95446c-8.26883,1.91006 -15.2416,2.37065 -20.89058,7.02389c-5.65013,4.65437 -6.45944,17.32378 -11.76967,19.49349c-5.31138,2.16858 -21.30333,11.92209 -27.39395,11.28992c-6.09063,-0.63104 -6.0756,-1.80959 -2.60366,-6.10498c3.47194,-4.29426 12.27028,-11.84985 17.22788,-18.74504c4.9576,-6.89519 -1.55965,-13.54655 2.78055,-16.33263c4.34021,-2.7872 5.11946,-11.07543 6.47332,-13.5172c1.3527,-2.44177 0.98504,-16.05944 -14.15366,-24.1614l-0.00001,0.00001z" stroke="null"/>
   <path id="svg_126" fill="#108F6E" d="m619.16418,300.17279c0.86827,1.7238 5.51718,3.70611 8.98911,5.40169c3.47194,1.69445 6.75195,-0.90536 8.16477,-5.40169c1.41167,-4.49633 7.50229,-5.35766 10.6956,-3.66321c3.19215,1.69558 6.67911,2.55691 9.00298,1.98231c2.32503,-0.5746 6.72305,-2.22615 6.84097,-2.26905c-13.21486,-31.17513 -34.07538,-58.7006 -60.74442,-80.15495c-1.81979,2.46321 -3.88468,4.74355 -6.16462,6.8094c-2.49498,2.17648 -4.44311,4.88466 -5.69291,7.91457c-0.97117,1.98231 -3.88468,10.48616 -2.72159,14.16292c1.16194,3.67789 0.67635,6.2348 4.9865,9.35164c4.3113,3.11796 8.13587,4.16556 6.20856,9.88334c-1.92731,5.71664 -0.45553,11.7934 -2.48573,14.83912c-1.20934,2.0952 -1.62324,4.54148 -1.16772,6.90535c0.45437,2.365 1.74811,4.49746 3.65345,6.02257c4.76683,3.96462 10.85746,3.11684 12.31421,3.39002c1.45676,0.27319 7.25256,3.08861 8.12084,4.82596l0,0.00001z" stroke="null"/>
   <path id="svg_127" fill="#108F6E" d="m476.12229,347.83521c-0.09712,2.43951 -1.15037,4.74807 -2.94242,6.45042c-2.94242,2.54224 -5.81199,7.08146 -2.94242,7.64138c2.86842,0.56105 8.98795,1.43706 10.44471,2.2555c1.45676,0.81844 8.98911,4.82709 11.01932,3.41938c2.03021,-1.40771 3.48697,-4.82709 5.51718,-5.10028c2.03021,-0.27319 2.60366,-5.31476 4.41305,-6.90874c1.80938,-1.59511 7.82717,-7.26885 8.40063,-11.7934c0.57345,-4.52568 1.16194,-11.33395 0,-13.02952c-1.16194,-1.69445 -9.28277,-2.873 -10.15105,-5.09915c-0.86827,-2.22615 -6.04669,-3.96462 -9.98919,-1.70912c-3.94249,2.2555 -5.67904,7.36932 -6.25249,11.06076c-0.57345,3.69144 -7.81214,6.39171 -7.51732,12.81278l0,-0.00001z" stroke="null"/>
   <path id="svg_128" fill="#108F6E" d="m600.87727,227.58811l-2.39787,-1.75202c0,0 0.72029,-0.91891 1.88338,-2.71495c1.16194,-1.79605 2.79443,-4.30893 4.57491,-7.57026c4.31824,-7.88974 8.03066,-16.08089 11.10719,-24.50571c3.10775,-8.45418 5.66748,-17.08897 7.66531,-25.85698c0.91221,-3.54807 1.36773,-6.57911 1.80938,-8.61899l0.64745,-3.28955l2.94242,0.4888l-0.64745,3.34713c-0.44165,2.11213 -0.91221,5.1714 -1.83944,8.77704c-2.02558,8.85832 -4.61537,17.58455 -7.75318,26.12904c-3.11237,8.56707 -6.86872,16.89707 -11.23899,24.92227c-1.82441,3.27601 -3.47309,5.93339 -4.69399,7.77121c-1.2209,1.83894 -2.05911,2.873 -2.05911,2.873l-0.00001,-0.00003z" stroke="null"/>
   <path id="svg_129" fill="#FCE300" d="m638.83386,142.57786c-0.89833,6.29237 -5.88483,10.67355 -10.99042,9.79641c-5.10443,-0.87601 -8.60642,-6.24835 -7.78208,-12.00789c0.58848,-5.746 5.29635,-10.2141 10.50367,-9.85512c5.20848,0.35898 8.91627,5.76067 8.26883,12.06659l0,0.00001z" stroke="null"/>
   <path id="svg_130" fill="#108F6E" d="m632.94903,145.12122c-0.0659,-1.04421 -0.21851,-2.08278 -0.45668,-3.10329c-0.42778,-1.90668 -1.30992,-3.68805 -2.5736,-5.19962c-1.52497,1.20564 -2.74356,2.73979 -3.56096,4.48165c-0.49715,0.89972 -0.93533,1.83104 -1.30877,2.7872c-2.58979,-2.39435 -5.90333,-3.90592 -9.44579,-4.31006c0.33991,4.87563 2.57707,9.43969 6.25249,12.75634c1.54,1.4269 3.34823,2.54901 5.32641,3.3031c2.14929,-0.01919 4.27084,-0.48429 6.22243,-1.36369c3.44303,-1.43706 7.35662,-4.72662 9.88629,-11.49199c-3.59102,-0.34657 -7.20401,0.40188 -10.34181,2.14036l-0.00001,0z" stroke="null"/>
   <path id="svg_131" fill="#108F6E" d="m561.43502,84.32983c-2.59326,0.76527 -5.06859,1.87202 -7.35546,3.28955c-4.88476,2.75797 -15.87402,13.38749 -15.87402,13.38749c0,0 4.01648,7.18306 9.13594,10.94674c2.56551,-1.11307 5.06974,-2.35484 7.50229,-3.72079c0,0 3.04531,14.36499 -3.04531,23.15557c2.44643,2.58288 5.701,4.2999 9.25387,4.88353c5.7669,0.84779 11.85753,0.74732 16.86022,4.31006c5.00153,3.56274 13.1663,3.18908 16.65327,0c0,0 2.94242,-11.04608 0,-21.34598c-1.49491,-5.69294 -3.92399,-11.11156 -7.1936,-16.04589l1.85332,1.43706c0,0 6.25249,-6.73715 6.63518,-12.00891c0,0 -7.28262,-7.34031 -12.50498,-10.05527c-5.22236,-2.71495 -11.03435,-1.91052 -15.31559,-0.04312c-2.07067,0.9889 -4.30899,1.60222 -6.60512,1.80993l-0.00001,0.00003z" stroke="null"/>
   <path id="svg_132" fill="#FF9A5C" d="m550.09197,71.20029c0,0.47402 1.27986,6.30615 4.19338,9.15036c2.91236,2.84421 5.17842,1.10608 5.98773,1.43639c0.80815,0.33042 1.27986,2.52824 1.27986,4.09399c0,1.56576 2.58863,3.16018 5.01656,1.43639c2.42677,-1.72369 1.13188,-9.7823 1.13188,-9.7823c0.83474,-2.00557 0.95383,-4.22641 0.33875,-6.30603c0,0 1.23593,-3.00225 0.36766,-4.74039c-0.86712,-1.73814 -2.16201,-1.26412 -2.80946,0c0,0 -3.07537,-5.51604 -7.59132,-4.5679c-4.5171,0.94803 -8.56249,3.2751 -7.91504,9.2795l0,-0.00001z" stroke="null"/>
   <path id="svg_133" fill="#753519" d="m571.10048,67.88217c-1.47063,-1.89607 -0.48559,-6.78005 -2.38284,-9.62426c-1.89841,-2.84421 -5.88483,-1.89618 -5.88483,-1.89618c0,0 -0.97117,-4.30938 -4.67781,-3.61986c-3.70779,0.68952 -7.12076,5.51604 -7.12076,5.51604c-1.80476,-0.41261 -3.68236,-0.41261 -5.48711,0c-3.56096,0.63206 -7.59132,3.00214 -6.13572,6.46408c1.45676,3.46182 6.94387,3.28955 6.94387,3.28955c0,0 -1.47063,6.82317 3.64883,4.92699c0.14683,0 0.27979,-0.14359 0.41159,-0.20105c-0.14105,-0.50585 -0.25435,-1.01893 -0.3376,-1.53708c-0.32026,-1.63089 -0.06937,-3.3197 0.71219,-4.79446c0.78156,-1.47477 2.04871,-2.64982 3.59796,-3.33584c1.14691,-0.53769 2.3574,-0.93347 3.60489,-1.17799c4.51594,-0.94803 7.59132,4.56801 7.59132,4.56801c0.64629,-1.26412 1.94119,-1.73814 2.80946,0c0.86827,1.73814 -0.36766,4.74028 -0.36766,4.74028c0.43587,1.57095 0.48096,3.22069 0.1318,4.81219c0.18152,0.01208 0.36303,0.01208 0.54455,0c4.7518,0.0718 3.83959,-6.23424 2.39787,-8.13041l0,-0.00001z" stroke="null"/>
   <path id="svg_134" fill="#753519" d="m550.43073,72.73725c0,0 5.57614,-2.2984 5.9727,-10.42881c0,0 1.70649,5.07081 9.19491,4.15145c0,0 -0.58848,-6.76583 -6.75195,-8.46084c-6.16462,-1.69501 -10.68172,8.33158 -10.68172,8.33158c-0.2058,1.16771 -0.10637,2.3676 0.2902,3.48779c0.39541,1.12007 1.07522,2.12421 1.97587,2.91883l-0.00001,0z" stroke="null"/>
   <path id="svg_135" fill="white" d="m560.71358,195.75597c-1.17697,-9.56612 -3.10428,-19.10402 -3.11815,-19.19095l0.80931,-0.15804c0,0.08692 1.95622,9.66772 3.11815,19.24852l-0.80931,0.10047z" stroke="null"/>
   <path id="svg_136" fill="#FF9A5C" d="m258.76964,498.16129c0.89602,0.01242 1.78973,0.07563 2.67766,0.18627c0.97117,0.17272 1.58971,1.43706 1.85447,2.02521c0.26476,0.58927 -0.92724,0.47413 -1.47179,-0.25851c-0.54455,-0.73264 -0.73532,-0.93358 -0.73532,-0.93358c-0.48443,-0.10724 -0.98736,-0.10724 -1.47179,0c-0.51449,0.18739 -1.13188,-0.41656 -1.2498,-0.83311c-0.11793,-0.41656 0.39656,-0.18627 0.39656,-0.18627l0.00001,-0.00001z" stroke="null"/>
   <path id="svg_137" fill="#FF9A5C" d="m247.42775,507.88546c0.99776,1.02164 2.17935,1.85362 3.48581,2.45644c0.14799,1.22145 0.86827,1.73847 1.27986,1.69558c0.41275,-0.0429 0.41275,-1.88184 0.41275,-1.88184c0.35263,0.83311 1.77932,1.6809 1.97125,1.16387c0.10405,-0.44929 0.10405,-0.91552 0,-1.36482c0,0 0.57345,0.76086 1.0151,0.76086c0.44165,0 0.95614,-0.37366 0.76538,-1.32079c-0.24511,-1.10969 -0.7041,-2.16293 -1.35386,-3.10329c-0.57345,-0.74732 -0.91221,-1.50818 -2.16317,-1.78137c-1.03592,-0.1603 -2.08339,-0.24158 -3.13318,-0.24384c-1.20009,-0.07112 -2.40365,-0.07112 -3.60489,0l1.32495,3.61919l0,0.00001z" stroke="null"/>
   <path id="svg_138" fill="#FF9A5C" d="m247.92721,504.97069l0,-0.76199c1.36658,-0.44478 2.78518,-0.71458 4.22228,-0.80376c0.69138,0.24384 1.35386,1.20677 1.73655,1.56576c0.38269,0.35898 -5.95883,0 -5.95883,0l0,-0.00001z" stroke="null"/>
   <path id="svg_139" fill="#0E1A34" d="m332.8295,609.48798c8.36016,0 15.13755,-6.61749 15.13755,-14.78155c0,-8.16293 -6.77738,-14.78155 -15.13755,-14.78155c-8.36132,0 -15.1387,6.61862 -15.1387,14.78155c0,8.16406 6.77738,14.78155 15.1387,14.78155z" stroke="null"/>
   <path id="svg_140" fill="white" d="m332.8295,601.31377c-1.33883,0 -2.6476,-0.38721 -3.75982,-1.11307c-1.11338,-0.72587 -1.98049,-1.75767 -2.49267,-2.96557c-0.51218,-1.2079 -0.64629,-2.53546 -0.385,-3.81787c0.26129,-1.28128 0.90527,-2.4587 1.85216,-3.38325c0.94574,-0.92342 2.15161,-1.55334 3.465,-1.80846c1.31224,-0.25513 2.67303,-0.12418 3.91012,0.37592c1.23593,0.50009 2.29266,1.34788 3.03606,2.43386c0.74456,1.08711 1.14113,2.36387 1.14113,3.67112c-0.00347,1.75089 -0.71797,3.42954 -1.98628,4.66792c-1.2683,1.23838 -2.98751,1.93603 -4.7807,1.93941l0,-0.00001zm0,-12.4109c-1.16425,0 -2.30191,0.33753 -3.26961,0.96858c-0.9677,0.63104 -1.72267,1.5285 -2.16779,2.57836c-0.44512,1.04986 -0.56189,2.20583 -0.33413,3.32003c0.22661,1.11533 0.78734,2.1381 1.60937,2.94186c0.82318,0.80376 1.87182,1.35127 3.0141,1.57253c1.14113,0.22239 2.32387,0.10837 3.3991,-0.32625c1.07522,-0.43575 1.99437,-1.17178 2.64182,-2.11665c0.64629,-0.94487 0.99083,-2.05569 0.99083,-3.19247c0,-1.52399 -0.6197,-2.98476 -1.72267,-4.06284c-1.10413,-1.07695 -2.60135,-1.68316 -4.161,-1.68316l-0.00002,0.00001z" stroke="null"/>
   <path id="svg_141" fill="#108F6E" d="m514.51937,353.98308c-2.16548,1.93151 -4.13673,4.06284 -5.88483,6.36349c-2.38284,3.33245 4.11938,1.66623 5.88483,1.99586c1.76545,0.33076 2.05911,2.74431 5.48711,1.8683c1.16425,-0.17949 2.30653,-0.46736 3.41297,-0.86246c3.0904,-1.00583 4.11938,-0.67507 7.19476,-1.00583c3.07422,-0.32963 2.4707,-2.52756 4.14829,-4.43762c1.67758,-1.91119 1.75042,-3.59209 0,-5.25832c-1.75042,-1.66623 -2.78055,3.34713 -6.19353,0c-3.41297,-3.34713 -3.3251,-6.24835 -6.45829,-4.81241c-3.13434,1.43706 -2.32503,1.93941 -3.75173,3.18908c-1.4267,1.24967 -3.83959,2.95992 -3.83959,2.95992l0.00001,-0.00001z" stroke="null"/>
   <path id="svg_142" fill="#91B31E" d="m625.96122,385.61428c-3.43956,0.01129 -6.84675,-0.65701 -10.01462,-1.96538c-3.16787,-1.30837 -6.03166,-3.22972 -8.41913,-5.64778c-3.52049,2.90235 -6.50569,6.37139 -8.82725,10.25587c0,0 6.16462,7.02502 13.1374,10.257c0,0 -3.16324,25.85585 -1.47063,34.87673c0,0 11.06325,2.01166 17.9181,2.45644c5.14952,0.10499 10.28979,-0.45945 15.28553,-1.67977l-1.92731,-31.97664l1.92731,2.22728c0,0 7.07683,-6.34995 7.19476,-9.81109c0,0 -10.09208,-9.25117 -14.46235,-10.70178c-4.36911,-1.45061 -6.09063,2.05343 -10.34181,1.70912z" stroke="null"/>
   <path id="svg_143" fill="white" d="m633.69937,477.6202l-0.82434,0c0,-0.71797 0.29482,-17.84081 0.82434,-20.19678c0.52952,-2.35597 3.54593,-18.47298 3.57483,-18.67392l0.82434,0.14337c0,0.15804 -3.0904,16.31795 -3.58986,18.67392c-0.50062,2.35597 -0.80931,19.88069 -0.80931,20.05341z" stroke="null"/>
   <path id="svg_144" fill="#FFD200" d="m502.79364,604.38771l-16.903,0c0,0 -9.23884,-60.46052 0,-73.25975c9.23884,-12.79923 28.65763,-8.3887 16.903,73.25975z" stroke="null"/>
   <path id="svg_145" fill="#FFD200" d="m480.41741,604.38771l-15.07974,0c0,0 -19.78645,-6.03273 -29.26114,-20.7567c-9.4747,-14.72397 4.58994,-20.95764 14.85891,-14.6664c10.26897,6.29237 29.48197,35.4231 29.48197,35.4231z" stroke="null"/>
   <path id="svg_146" fill="#91B31E" d="m485.89065,604.38771l-9.19491,0c0,0 -21.93574,-21.15858 -24.68739,-46.71415c-2.75049,-25.55444 18.16899,-17.23686 27.42286,5.18607c5.53105,13.26546 9.00298,27.26244 10.29904,41.52808l-3.83959,0l-0.00001,0z" stroke="null"/>
   <path id="svg_147" fill="#FFD200" d="m508.26688,604.38771l15.07974,0c0,0 19.78645,-6.03273 29.26114,-20.7567c9.4747,-14.72397 -4.57491,-20.95764 -14.85891,-14.6664c-10.28285,6.29237 -29.48197,35.4231 -29.48197,35.4231z" stroke="null"/>
   <path id="svg_148" fill="#91B31E" d="m502.79364,604.38771l9.20994,0c0,0 21.93574,-21.15858 24.67121,-46.71415c2.73662,-25.55444 -18.16899,-17.23686 -27.4217,5.18607c-5.53221,13.26546 -9.00298,27.26244 -10.29904,41.52808l3.83959,0z" stroke="null"/>
   <path id="svg_149" fill="white" d="m554.74087,336.11405l0.89833,-1.78137l1.16194,1.62333l1.82441,0.87601l-1.66255,1.13452l-0.89718,1.78137l-1.16309,-1.62333l-1.83829,-0.87601l1.67643,-1.13452z" stroke="null"/>
   <path id="svg_150" fill="white" d="m586.82766,343.49692l0.54455,-1.07808l0.70641,0.99116l1.118,0.5317l-1.0151,0.68975l-0.54455,1.09163l-0.70641,-0.99116l-1.118,-0.5317l1.0151,-0.70329l0,-0.00001z" stroke="null"/>
   <path id="svg_151" fill="white" d="m592.00609,328.8881l0.54455,-1.09163l0.70641,0.99116l1.118,0.5317l-1.0151,0.68975l-0.54455,1.09163l-0.72144,-0.99116l-1.10297,-0.5317l1.0151,-0.68975z" stroke="null"/>
   <path id="svg_152" fill="white" d="m547.00272,323.41529l0.54455,-1.07808l0.70641,0.99116l1.118,0.5317l-1.0151,0.68975l-0.55958,1.09163l-0.70525,-0.99116l-1.10413,-0.5317l1.0151,-0.70329l0,-0.00001z" stroke="null"/>
   <path id="svg_153" fill="white" d="m553.7119,363.49276l0.55842,-1.07695l0.70641,0.99116l1.10297,0.5317l-1.0151,0.68862l-0.54455,1.07808l-0.70525,-0.99116l-1.118,-0.5317l1.0151,-0.68975z" stroke="null"/>
   <path id="svg_154" fill="white" d="m439.91611,118.25954l-0.33875,-0.23029c0.32372,-0.45945 0.51565,-0.68862 0.51565,-0.68862l0.32372,0.24384l-0.50062,0.67507z" stroke="null"/>
   <path id="svg_155" fill="white" d="m428.86673,141.37221l-0.39656,-0.08579c0.01619,-0.12192 0.04047,-0.24158 0.07399,-0.36011l0.41159,0.08692l-0.08902,0.35898zm0.50062,-1.98231l-0.39656,-0.10047c0.14683,-0.54638 0.30869,-1.09163 0.48443,-1.62333l0.39772,0.11515c-0.23586,0.5317 -0.33875,1.06228 -0.48559,1.60865zm1.00007,-3.20376l-0.38153,-0.12869l0.57345,-1.59511l0.39656,0.1445c-0.2058,0.51703 -0.39656,1.0476 -0.58848,1.5793zm1.20703,-3.14506l-0.38269,-0.15804c0.22083,-0.51816 0.44165,-1.04873 0.66248,-1.55221l0.38153,0.15804c-0.21504,0.508 -0.43587,1.02502 -0.66132,1.55221zm1.36773,-3.08861l-0.36766,-0.15804c0.23586,-0.5317 0.48559,-1.03405 0.73532,-1.53753l0.36766,0.18739l-0.73532,1.50818zm1.47179,-3.01637l-0.36766,-0.18739c0.27863,-0.50235 0.54339,-1.00583 0.82318,-1.43593l0.35378,0.18627l-0.80931,1.43706l0.00001,-0.00001zm1.66255,-2.873l-0.36881,-0.20207l0.8833,-1.43593l0.35263,0.20094l-0.86712,1.43706zm1.77932,-2.873l-0.35263,-0.21562c0.33875,-0.5317 0.66132,-1.00583 0.94111,-1.43706l0.33875,0.23029l-0.92724,1.42239l0.00001,0z" stroke="null"/>
   <path id="svg_156" fill="white" d="m428.51411,143.06666l-0.41159,0c0,-0.27206 0.11793,-0.55992 0.16186,-0.83311l0.41159,0.08692c-0.05896,0.20094 -0.11793,0.47413 -0.16186,0.74619z" stroke="null"/>
   <path id="svg_157" fill="white" d="m442.85853,119.27892l-0.39772,0c0.1029,-0.54525 0.16186,-0.83311 0.16186,-0.83311l0.39772,0l-0.16186,0.83311z" stroke="null"/>
   <path id="svg_158" fill="white" d="m440.7393,139.4328c0,-0.56105 0,-1.13565 0,-1.69558l0.41275,0c0,0.55992 0,1.12098 0,1.6809l-0.41275,0.01468zm0.39772,-3.37648l-0.41159,0c0,-0.5746 0,-1.13452 0,-1.69445l0.41159,0c0,0.58363 0,1.1492 0,1.69445zm0.11793,-3.34713l-0.41275,0c0,-0.5746 0.07399,-1.13452 0.1029,-1.67977l0.41275,0c0.0289,0.54525 -0.07399,1.10517 -0.1029,1.67977zm0.24973,-3.36067l-0.41159,0c0,-0.5746 0.1029,-1.13452 0.16186,-1.6809l0.41159,0c-0.05896,0.54638 -0.11793,1.1063 -0.16186,1.6809zm0.35263,-3.34713l-0.41159,0c0.07862,-0.59379 0.15261,-1.15371 0.22083,-1.6809l0.41159,0c-0.07284,0.54638 -0.14683,1.1063 -0.22083,1.6809zm0.45668,-3.33245l-0.39772,0c0.08902,-0.6175 0.17689,-1.16387 0.26476,-1.66623l0.41275,0c-0.08902,0.50235 -0.17689,1.06228 -0.27979,1.66623z" stroke="null"/>
   <path id="svg_159" fill="white" d="m440.97515,143.05199c0,-0.28674 0,-0.55992 -0.07399,-0.84779l0.41275,0c0,0.28786 0,0.56105 0,0.84779l-0.33875,0l-0.00001,0z" stroke="null"/>
   <path id="svg_160" fill="white" d="m434.35501,148.72686l0,-0.83424l0.41159,0l0,0.83424l-0.41159,0zm-0.1029,-2.45644l0,-0.64685c0,-0.33076 0,-0.64685 0,-0.97648l0.41159,0c0,0.31609 0,0.63217 0,0.96181l0,0.64685l-0.41159,0.01468l0,-0.00001zm0.48559,-3.21843l-0.41275,0c0,-0.54525 0.07399,-1.07695 0.11793,-1.60865l0.41275,0c-0.04509,0.5317 -0.08902,1.0634 -0.11793,1.60865zm0.27979,-3.20263l-0.41275,0c0.07399,-0.5317 0.13296,-1.07808 0.22083,-1.59511l0.41159,0c-0.08787,0.51703 -0.16186,1.04873 -0.21967,1.59511zm0.48443,-3.17441l-0.39656,0c0.08787,-0.53735 0.19077,-1.06792 0.30869,-1.59511l0.39772,0.08579l-0.30985,1.50931l0,0.00001zm0.66248,-3.16086l-0.39656,-0.08579c0.11677,-0.5317 0.24973,-1.0634 0.38153,-1.56576l0.41275,0.10047c-0.16186,0.48768 -0.27979,1.00583 -0.41275,1.5364l0.01503,0.01468zm0.82434,-3.11684l-0.39772,-0.10047c0.16186,-0.5317 0.30869,-1.04873 0.47056,-1.55221l0.39772,0.11515c-0.17689,0.4888 -0.32372,0.99116 -0.48559,1.52286l0.01503,0.01468l0,-0.00001zm0.98504,-3.07394l-0.39656,-0.12982c0.19077,-0.5317 0.36766,-1.03405 0.55842,-1.52286l0.38269,0.1445c-0.19077,0.45945 -0.38269,0.96181 -0.55958,1.49351l0.01503,0.01468l0,-0.00001zm1.13303,-3.01637l-0.38269,-0.15804l0.61854,-1.43706l0.38153,0.15804c-0.2058,0.37366 -0.41159,0.87601 -0.63242,1.42239l0.01503,0.01468l0.00001,-0.00001zm1.29489,-2.97347l-0.38269,-0.15804c0.44165,-0.94826 0.72029,-1.43706 0.73532,-1.43706l0.36766,0.18627c-0.26938,0.45268 -0.51449,0.91778 -0.73532,1.39417l0.01503,0.01468l0,-0.00002z" stroke="null"/>
   <path id="svg_161" fill="#FFD200" d="m232.24511,486.41192c-0.19077,-0.10047 -0.36766,-0.18739 -0.54455,-0.30254c-2.79212,-1.97667 -5.74494,-3.72982 -8.82725,-5.24252c-0.12255,-0.0587 -0.24048,-0.12531 -0.35263,-0.20094c-0.91105,1.37385 -1.71342,2.8143 -2.39787,4.30893c2.44064,2.16632 5.06974,4.12267 7.85608,5.84647c0,0 1.97125,-1.60865 3.58986,-2.65738c0.18383,-0.59831 0.41044,-1.18419 0.67635,-1.75202l0.00001,0z" stroke="null"/>
  </g>
 </g>
</svg>